<svg width="69" height="54" viewBox="0 0 69 54" fill="none" xmlns="http://www.w3.org/2000/svg">
<g clip-path="url(#clip0_205_831)">
<path d="M0 26.7621C0 18.8905 5.32828 14.7226 11.1702 14.7226C14.3509 14.7226 16.2185 16.1902 17.2398 17.7095H17.2981V2.56845C17.2981 0.940252 17.2398 0.452833 16.7904 0.452833H14.6253C14.2284 0.452833 14.1174 0.395513 14.1174 0.177655C14.1174 -0.0402021 14.6194 0.0171121 15.0162 0.0171121H22.8016C23.1985 0.0171121 23.3093 0.0171289 23.3093 0.177655V35.6197C23.3093 37.1963 23.3677 37.6836 23.8229 37.6836H25.8013C26.1981 37.6836 26.7992 37.7352 26.7992 37.9531C26.7992 38.1709 26.5484 38.2225 26.1457 38.2225H17.7241C17.5549 38.2225 17.4674 37.5518 17.4674 37.3912V35.7802H17.3565C16.3352 37.3568 14.4034 38.876 11.1702 38.876C5.27576 38.8646 0 34.5763 0 26.7621ZM17.2981 33.8194V19.762C17.2981 18.4032 15.5999 15.3646 12.1391 15.3646C8.39231 15.3646 7.47013 17.9674 7.09078 22.3647C6.83374 25.308 6.83374 28.2676 7.09078 31.211C7.48764 35.6082 8.39231 38.211 12.1391 38.211C15.5999 38.1881 17.2981 35.1724 17.2981 33.8194Z" fill="#CBEBF0"/>
<path d="M40.1053 38.1881H28.5148C28.1763 38.1881 28.0654 38.1365 28.0654 37.9187C28.0654 37.7008 28.6199 37.6492 28.9642 37.6492H30.686C31.1995 37.6492 31.2696 37.1046 31.2696 35.5338V17.9445C31.2696 16.3737 31.2171 15.8864 30.686 15.8864H28.5148C28.1763 15.8864 28.0654 15.8291 28.0654 15.6113C28.0654 15.3934 28.7075 15.5711 29.046 15.5711H36.7554C37.1523 15.5711 37.339 15.4507 37.339 15.6113L37.1931 35.5338C37.1931 37.1046 37.2515 37.6492 37.7768 37.6492H39.901C40.2395 37.6492 40.7123 37.7008 40.7123 37.9187C40.7123 38.1365 40.4438 38.1881 40.1053 38.1881Z" fill="#CBEBF0"/>
<path d="M34.2048 6.78795C33.7528 6.80014 33.3029 6.72386 32.8813 6.56358C32.4596 6.4033 32.0747 6.16222 31.7488 5.85436C31.4229 5.54649 31.1626 5.17809 30.9831 4.77045C30.8036 4.3628 30.7084 3.92406 30.7031 3.47994C30.7069 3.03277 30.8007 2.59069 30.979 2.17922C31.1572 1.76774 31.4166 1.39501 31.742 1.08229C32.0674 0.769558 32.4525 0.523029 32.8751 0.356972C33.2978 0.190914 33.7496 0.108628 34.2048 0.114687C34.6582 0.107815 35.1085 0.189873 35.5293 0.356132C35.95 0.522391 36.3329 0.769429 36.6552 1.08285C36.9775 1.39626 37.2328 1.7697 37.4064 2.18132C37.5799 2.59293 37.6681 3.03444 37.6657 3.47994C37.6666 3.92241 37.5771 4.36054 37.4024 4.76835C37.2276 5.17615 36.9712 5.54537 36.6483 5.85394C36.3255 6.1625 35.9429 6.4041 35.5232 6.56456C35.1034 6.72501 34.655 6.80101 34.2048 6.78795V6.78795Z" fill="#CBEBF0"/>
<path d="M57.52 38.8646C54.2868 38.8646 52.4134 37.3969 51.3921 35.826H51.3337V51.0245C51.3337 52.6527 51.392 53.1401 51.9173 53.1401H54.8061C55.203 53.1401 55.4598 53.1917 55.4598 53.4095C55.4598 53.6274 55.1504 53.6789 54.8061 53.6789H42.4979C42.1594 53.6789 42.2119 53.6274 42.2119 53.4095C42.2119 53.1917 42.5679 53.1401 42.9122 53.1401H44.8265C45.3342 53.1401 45.4101 52.6527 45.4101 51.0245V17.9675C45.4101 16.3966 45.3517 15.9093 44.8265 15.9093H43.1398C42.7954 15.9093 42.2352 15.8519 42.2352 15.6341C42.2352 15.4162 43.0056 15.5252 43.3441 15.5252H50.7208C51.1761 15.5252 51.3804 15.4736 51.3804 15.6341L51.2345 17.8069H51.3453C52.425 16.1788 54.351 14.7111 57.5317 14.7111C63.3677 14.7111 68.6493 18.9479 68.6493 26.7506C68.6493 34.5534 63.4203 38.8646 57.52 38.8646ZM61.6052 22.3647C61.15 17.9674 60.2396 15.3646 56.4987 15.3646C53.0379 15.3646 51.3337 18.4033 51.3337 19.762V33.8194C51.3337 35.1724 53.0379 38.2111 56.4987 38.2111C60.2396 38.2111 61.2084 35.6656 61.6052 31.1593C61.8039 28.2311 61.8039 25.293 61.6052 22.3647Z" fill="#CBEBF0"/>
<path d="M0.355469 27.0831C0.355469 19.2173 5.68973 15.0436 11.5317 15.0436C14.7065 15.0436 16.5798 16.5056 17.6011 18.0249H17.6595V2.8837C17.6595 1.25551 17.6011 0.768226 17.1459 0.768226H15.1149C14.7181 0.768226 14.2395 0.710912 14.2395 0.498788C14.2395 0.286663 14.4263 0.223611 14.8231 0.223611L23.1629 0.189178C23.5598 0.189178 23.6707 0.298096 23.6707 0.464356V35.9351C23.6707 37.5117 23.729 37.9989 24.1842 37.9989H26.5187C26.9155 37.9989 26.9915 38.1251 26.8923 38.3142C26.793 38.5034 26.6763 38.5437 26.3087 38.5437H18.8733C18.0505 38.5437 17.8696 38.4346 17.8696 38.2683V36.1014H17.7587C16.7374 37.6722 14.8057 39.1914 11.5725 39.1914C5.63141 39.1857 0.355469 34.8973 0.355469 27.0831ZM17.6595 34.1405V20.083C17.6595 18.7242 15.9553 15.6857 12.4945 15.6857C8.75362 15.6857 7.82574 18.2943 7.44639 22.6858C7.19226 25.6293 7.19226 28.5885 7.44639 31.532C7.84325 35.9292 8.75362 38.5379 12.4945 38.5379C15.9553 38.5379 17.6595 35.4993 17.6595 34.1405Z" fill="#AAC3C9"/>
<path d="M40.2107 38.5379H29.3265C28.8421 38.5379 28.1885 38.4805 28.1885 38.2626C28.1885 38.0447 28.381 37.9932 28.7195 37.9932H31.0539C31.5617 37.9932 31.6375 37.4485 31.6375 35.8777V18.2943C31.6375 16.7177 31.5792 16.2304 31.0539 16.2304H29.2273C28.8888 16.2304 28.1943 16.173 28.1943 15.9609C28.1943 15.7488 28.3869 15.6857 28.7254 15.6857L37.1234 15.5539C37.5203 15.5539 37.5786 15.6571 37.5786 15.8233V35.8892C37.5786 37.46 37.6312 38.0046 38.1622 38.0046H40.4967C40.841 38.0046 40.8177 38.0562 40.8177 38.2741C40.8177 38.4919 40.5375 38.5379 40.2107 38.5379Z" fill="#AAC3C9"/>
<path d="M34.5671 7.10904C34.1151 7.12124 33.6652 7.04495 33.2436 6.88467C32.8219 6.72439 32.4369 6.48332 32.111 6.17545C31.7851 5.86759 31.5248 5.49904 31.3453 5.0914C31.1658 4.68375 31.0707 4.24515 31.0654 3.80103C31.0692 3.35386 31.1629 2.91179 31.3411 2.50031C31.5194 2.08883 31.7787 1.71611 32.1041 1.40338C32.4295 1.09065 32.8146 0.844124 33.2373 0.678066C33.66 0.512008 34.1119 0.429583 34.5671 0.435641C35.0203 0.428757 35.4703 0.5109 35.8907 0.677226C36.3112 0.843552 36.6935 1.09072 37.0154 1.40422C37.3372 1.71772 37.5921 2.09125 37.765 2.50283C37.9378 2.91441 38.0252 3.3558 38.022 3.80103C38.0238 4.24323 37.9349 4.68124 37.7608 5.08902C37.5867 5.4968 37.3309 5.86597 37.0085 6.17461C36.6862 6.48326 36.3039 6.72513 35.8845 6.88565C35.465 7.04617 35.017 7.12212 34.5671 7.10904V7.10904Z" fill="#AAC3C9"/>
<path d="M57.8762 39.1857C54.6431 39.1857 52.7755 37.7237 51.7542 36.1471H51.6959V51.3742C51.6959 53.0024 51.7543 53.4897 52.2795 53.4897H55.1976C55.5944 53.4897 55.5885 53.5413 55.5885 53.7592C55.5885 53.977 55.326 54.0343 54.6081 54.0343H43.5196C43.1811 54.0343 42.3172 54.0343 42.4165 53.7592C42.5157 53.484 42.5274 53.4897 42.8717 53.4897H45.2061C45.7197 53.4897 45.7897 53.0024 45.7897 51.3742V18.2943C45.7897 16.7177 45.7372 16.2304 45.2061 16.2304H43.4553C43.1168 16.2304 42.2881 16.173 42.2881 15.9609C42.2881 15.7488 42.4982 15.6857 42.8425 15.6857L51.0656 15.5539C51.5208 15.5539 51.5791 15.7947 51.5791 15.9609V18.1223H51.6901C52.7698 16.4941 54.6956 15.0322 57.8704 15.0322C63.7065 15.0322 68.994 19.2632 68.994 27.0717C68.994 34.8802 63.7765 39.1857 57.8762 39.1857ZM61.9615 22.6858C61.5121 18.2943 60.6017 15.6857 56.8608 15.6857C53.4 15.6857 51.6959 18.7242 51.6959 20.083V34.1405C51.6959 35.4993 53.4 38.5379 56.8608 38.5379C60.6017 38.5379 61.5646 35.9866 61.9615 31.4804C62.1591 28.5598 62.1591 25.6294 61.9615 22.7088V22.6858Z" fill="#AAC3C9"/>
<path d="M0.151367 26.871C0.151367 19.0052 5.48549 14.8315 11.3274 14.8315C14.5022 14.8315 16.3757 16.2934 17.397 17.8127H17.4553V2.64296C17.4553 1.01476 17.397 0.52748 16.9418 0.52748H14.6074C14.2105 0.52748 14.0937 0.475899 14.0937 0.258042C14.0937 0.0401841 14.2105 -0.0171356 14.6074 -0.0171356H22.9471C23.344 -0.0171356 23.4548 0.091782 23.4548 0.258042V35.6942C23.4548 37.2708 23.5132 37.7582 23.9685 37.7582H26.3029C26.6997 37.7582 26.8164 37.8155 26.8164 38.0276C26.8164 38.2397 26.6997 38.3028 26.3029 38.3028H18.0798C17.6829 38.3028 17.6246 38.1939 17.6246 38.0276V35.8949H17.5137C16.4924 37.4658 14.5606 38.985 11.3274 38.985C5.42713 38.9735 0.151367 34.6852 0.151367 26.871ZM17.4553 33.9285V19.8709C17.4553 18.5179 15.7512 15.4736 12.2904 15.4736C8.54952 15.4736 7.6215 18.0822 7.24215 22.4795C6.98802 25.423 6.98802 28.3822 7.24215 31.3256C7.639 35.7172 8.54952 38.3257 12.2904 38.3257C15.7512 38.3257 17.4553 35.2872 17.4553 33.9285V33.9285Z" fill="url(#paint0_linear_205_831)"/>
<path d="M40.2571 38.3257H28.5148C28.1763 38.3257 28.0654 38.2684 28.0654 38.0505C28.0654 37.8327 28.1763 37.7811 28.5148 37.7811H30.8493C31.357 37.7811 31.4329 37.2365 31.4329 35.6656V18.0821C31.4329 16.5055 31.3745 16.0183 30.8493 16.0183H28.5148C28.1763 16.0183 28.0654 15.9667 28.0654 15.7489C28.0654 15.531 28.1763 15.4736 28.5148 15.4736H36.913C37.3099 15.4736 37.3683 15.5826 37.3683 15.7489V35.6656C37.3683 37.2365 37.4208 37.7811 37.9519 37.7811H40.2863C40.6306 37.7811 40.7415 37.8384 40.7415 38.0505C40.7415 38.2627 40.6014 38.3257 40.2571 38.3257Z" fill="url(#paint1_linear_205_831)"/>
<path d="M34.363 6.90259C33.9105 6.91479 33.4602 6.83843 33.0382 6.6778C32.6161 6.51716 32.2308 6.27551 31.9049 5.96704C31.5789 5.65857 31.3188 5.28934 31.1396 4.88103C30.9604 4.47272 30.8658 4.03345 30.8613 3.58884C30.8651 3.14167 30.9589 2.69974 31.1372 2.28826C31.3154 1.87678 31.5746 1.50392 31.9 1.19119C32.2254 0.878461 32.6105 0.631932 33.0332 0.465875C33.4559 0.299817 33.9078 0.217531 34.363 0.22359C34.8162 0.216706 35.2662 0.298849 35.6866 0.465175C36.1071 0.631501 36.4894 0.878673 36.8113 1.19217C37.1331 1.50566 37.388 1.8792 37.5609 2.29078C37.7337 2.70236 37.8212 3.14361 37.818 3.58884C37.8206 4.03152 37.7323 4.4702 37.5586 4.87865C37.3848 5.2871 37.129 5.65694 36.8065 5.9662C36.4841 6.27546 36.1016 6.51776 35.6818 6.67864C35.262 6.83951 34.8134 6.91568 34.363 6.90259Z" fill="url(#paint2_linear_205_831)"/>
<path d="M57.6719 38.9736C54.4387 38.9736 52.5712 37.5117 51.5498 35.9351H51.4914V51.1335C51.4914 52.7617 51.5498 53.249 52.075 53.249H54.9931C55.3899 53.249 55.5007 53.3063 55.5007 53.5184C55.5007 53.7305 55.3316 53.7936 54.9931 53.7936H42.6847C42.3404 53.7936 42.2295 53.7363 42.2295 53.5184C42.2295 53.3006 42.3404 53.249 42.6847 53.249H45.0192C45.5327 53.249 45.6028 52.7617 45.6028 51.1335V18.0821C45.6028 16.5055 45.5502 16.0183 45.0192 16.0183H42.6847C42.3404 16.0183 42.2295 15.9667 42.2295 15.7489C42.2295 15.531 42.3404 15.4735 42.6847 15.4735H50.9078C51.363 15.4735 51.4213 15.5826 51.4213 15.7489V17.9159H51.5323C52.612 16.2877 54.5378 14.8258 57.7126 14.8258C63.5487 14.8258 68.8362 19.0568 68.8362 26.8653C68.8362 34.6737 63.5722 38.9736 57.6719 38.9736ZM61.7571 22.4795C61.3078 18.0822 60.3973 15.4735 56.6506 15.4735C53.1956 15.4735 51.4914 18.5179 51.4914 19.8709V33.9285C51.4914 35.2872 53.1956 38.3257 56.6506 38.3257C60.3973 38.3257 61.3603 35.7745 61.7571 31.2682C61.9558 28.3419 61.9558 25.4059 61.7571 22.4795V22.4795Z" fill="url(#paint3_linear_205_831)"/>
</g>
<defs>
<linearGradient id="paint0_linear_205_831" x1="13.481" y1="2.2417" x2="13.481" y2="48.5707" gradientUnits="userSpaceOnUse">
<stop stop-color="#BAE1E9"/>
<stop offset="1" stop-color="#B1D8E2"/>
</linearGradient>
<linearGradient id="paint1_linear_205_831" x1="31242.4" y1="49085.9" x2="31242.4" y2="50932.6" gradientUnits="userSpaceOnUse">
<stop stop-color="#BAE1E9"/>
<stop offset="1" stop-color="#B1D8E2"/>
</linearGradient>
<linearGradient id="paint2_linear_205_831" x1="17161" y1="14346" x2="17161" y2="14885.9" gradientUnits="userSpaceOnUse">
<stop stop-color="#BAE1E9"/>
<stop offset="1" stop-color="#B1D8E2"/>
</linearGradient>
<linearGradient id="paint3_linear_205_831" x1="66522.4" y1="83690.4" x2="66522.4" y2="86839.4" gradientUnits="userSpaceOnUse">
<stop stop-color="#BAE1E9"/>
<stop offset="1" stop-color="#B1D8E2"/>
</linearGradient>
<clipPath id="clip0_205_831">
<rect width="69" height="54" fill="white"/>
</clipPath>
</defs>
</svg>
