<svg width="76" height="58" viewBox="0 0 76 58" fill="none" xmlns="http://www.w3.org/2000/svg">
<path d="M26.1269 16.3364C28.5244 17.8098 30.4049 19.8454 31.7813 22.4497C33.1513 25.0475 33.8428 27.949 33.8428 31.1414C33.8428 34.3337 33.1061 37.2353 31.6327 39.8331C30.1593 42.4374 28.1237 44.4794 25.5194 45.9787C22.9216 47.4714 20.0459 48.2211 16.8923 48.2211C13.7388 48.2211 10.8824 47.4779 8.3234 45.9787C5.76436 44.4859 3.73522 42.4374 2.24245 39.8395C0.743208 37.2417 4.809e-05 34.3402 4.82295e-05 31.1478L4.94541e-05 3.13406C4.94953e-05 2.19057 0.290852 1.43449 0.88538 0.859354C1.46698 0.284215 2.2166 -0.000123453 3.11485 -0.000123413C4.0131 -0.000123374 4.81442 0.284215 5.38956 0.859354C5.96469 1.43449 6.24903 2.19057 6.24903 3.13406L6.24903 19.7162C7.68365 17.952 9.42199 16.582 11.4705 15.5997C13.519 14.6174 15.7291 14.1263 18.1072 14.1263C21.054 14.1263 23.7294 14.863 26.1269 16.3364ZM22.4498 41.1837C24.1106 40.182 25.416 38.7991 26.3789 37.0349C27.3418 35.2772 27.82 33.3062 27.82 31.1349C27.82 28.9636 27.3353 27.012 26.3724 25.2672C25.4096 23.5289 24.0977 22.1589 22.4369 21.1508C20.7761 20.1491 18.9279 19.6451 16.8794 19.6451C14.8309 19.6451 12.9762 20.1491 11.3219 21.1508C9.66109 22.1524 8.36218 23.5289 7.42516 25.2672C6.48167 27.0056 6.01639 28.9636 6.01639 31.1349C6.01639 33.3062 6.48813 35.2707 7.43162 37.0285C8.37511 38.7862 9.67402 40.1691 11.3348 41.1708C12.9956 42.1724 14.8438 42.6765 16.8923 42.6765C18.9409 42.6765 20.7891 42.1724 22.4498 41.1708L22.4498 41.1837Z" fill="#13131A"/>
<path d="M49.624 46.0297C47.0456 44.5757 45.0358 42.5594 43.6012 39.981C42.1666 37.4026 41.4493 34.4752 41.4493 31.1988C41.4493 27.9225 42.1666 24.9305 43.5947 22.352C45.0293 19.7736 47.0326 17.7574 49.6111 16.3034C52.1895 14.8494 55.1169 14.1191 58.3932 14.1191C61.6244 14.1191 64.5259 14.8429 67.085 16.2969C69.644 17.7509 71.6538 19.7671 73.1078 22.3456C74.5618 24.924 75.292 27.8708 75.292 31.1924C75.292 34.4687 74.5747 37.3961 73.1465 39.9745C71.7119 42.553 69.7151 44.5692 67.156 46.0232C64.597 47.4772 61.6761 48.2074 58.4062 48.2074C55.1298 48.2074 52.2024 47.4837 49.624 46.0297ZM64.0283 41.2024C65.6891 40.2201 66.9751 38.8566 67.8992 37.1182C68.8233 35.3799 69.2821 33.4024 69.2821 31.1924C69.2821 28.9823 68.8233 26.9984 67.8992 25.2342C66.9751 23.4765 65.6891 22.1 64.0283 21.1177C62.3675 20.1355 60.4935 19.6444 58.4062 19.6444C56.3189 19.6444 54.4448 20.1355 52.784 21.1177C51.1232 22.1 49.8243 23.4765 48.8873 25.2342C47.9438 26.9919 47.4721 28.9823 47.4785 31.1924C47.485 33.4024 47.9503 35.3799 48.8938 37.1182C49.8372 38.8566 51.1362 40.2201 52.797 41.2024C54.4577 42.1846 56.3318 42.6758 58.4191 42.6758C60.5064 42.6758 62.3804 42.1846 64.0412 41.2024L64.0283 41.2024Z" fill="#13131A"/>
<path d="M72.8645 51.6792L44.3402 51.6841C42.6093 51.6844 41.2063 53.0879 41.2066 54.8189L41.2066 54.8253C41.2069 56.5563 42.6104 57.9593 44.3413 57.959L72.8656 57.954C74.5966 57.9537 75.9996 56.5502 75.9993 54.8193L75.9993 54.8128C75.999 53.0818 74.5955 51.6789 72.8645 51.6792Z" fill="#13131A"/>
</svg>
