<svg width="64" height="64" viewBox="0 0 64 64" fill="none" xmlns="http://www.w3.org/2000/svg">
<path fillRule="evenodd" clipRule="evenodd" d="M31.5297 61.0594C47.8385 61.0594 61.0594 47.8385 61.0594 31.5297C61.0594 15.2208 47.8385 2 31.5297 2C15.2208 2 2 15.2208 2 31.5297C2 47.8385 15.2208 61.0594 31.5297 61.0594Z" stroke="#4F4F4F"/>
<path d="M9.44849 39.4363L9.44927 39.4367L14.039 42.0895L14.2888 42.2339V42.5224V47.8063C14.2888 48.3109 14.4892 48.7949 14.8461 49.1518C15.203 49.5086 15.687 49.7091 16.1917 49.7091H21.4759H21.7644L21.9088 49.9589L24.5603 54.5461C24.5606 54.5465 24.5608 54.5469 24.5611 54.5473C24.73 54.8355 24.9708 55.0748 25.2601 55.2419C25.5494 55.4089 25.8772 55.4979 26.2113 55.5C26.5408 55.4997 26.8697 55.4125 27.1634 55.2427C27.1634 55.2427 27.1634 55.2427 27.1635 55.2427L31.7483 52.5924L31.9985 52.4477L32.2487 52.5924L36.838 55.2449L9.44849 39.4363ZM9.44849 39.4363C9.23239 39.3119 9.04305 39.1459 8.89142 38.948M9.44849 39.4363L8.49451 39.2521L8.89142 38.948M42.2325 49.7115H42.5212H47.8053C48.31 49.7115 48.794 49.511 49.1509 49.1542C49.5078 48.7973 49.7083 48.3133 49.7083 47.8087V42.5248V42.2363L49.9581 42.0919L54.5478 39.4391L54.5478 39.4391C54.7643 39.314 54.954 39.1474 55.1061 38.949C55.2582 38.7505 55.3697 38.524 55.4342 38.2824C55.4987 38.0409 55.515 37.789 55.4821 37.5411C55.4492 37.2932 55.3677 37.0543 55.2424 36.8379L55.2421 36.8375L52.5916 32.2504L52.447 32.0001L52.5918 31.7498L55.2446 27.1654C55.2446 27.1653 55.2447 27.1653 55.2447 27.1652C55.4971 26.7284 55.5657 26.2093 55.4355 25.722C55.3053 25.2346 54.9868 24.8189 54.5502 24.5662C54.5501 24.5662 54.5501 24.5661 54.55 24.5661L49.9605 21.9135L49.7107 21.7691V21.4806V16.1943C49.7107 15.6896 49.5102 15.2056 49.1533 14.8488C48.7964 14.4919 48.3124 14.2914 47.8077 14.2914H42.5236H42.235L42.0906 14.0416L39.4409 9.45572C39.4408 9.45558 39.4407 9.45545 39.4406 9.45531C39.1866 9.0188 38.771 8.69977 38.2837 8.56722C38.0427 8.50191 37.7912 8.48507 37.5438 8.51767C37.2963 8.55028 37.0577 8.63168 36.842 8.75716L36.8406 8.75797L32.2485 11.4083L31.9983 11.5527L31.7482 11.4081L27.161 8.75541C26.7242 8.50293 26.2049 8.43426 25.7175 8.5645C25.2301 8.69473 24.8143 9.01316 24.5617 9.44978C24.5616 9.44984 24.5616 9.4499 24.5616 9.44996L21.9088 14.0392L21.7644 14.289H21.4759H16.1917C15.687 14.289 15.203 14.4895 14.8461 14.8464C14.4892 15.2032 14.2888 15.6872 14.2888 16.1919V21.4758V21.7643L14.039 21.9086L9.45031 24.5608C9.45021 24.5609 9.4501 24.5609 9.45 24.561C9.0132 24.815 8.69482 25.2316 8.56457 25.7198C8.4343 26.208 8.5028 26.7279 8.75507 27.1658C8.75511 27.1658 8.75515 27.1659 8.75518 27.1659L11.4076 31.7498L11.5525 32.0003L11.4076 32.2507L8.75577 36.8336C8.75563 36.8338 8.7555 36.834 8.75537 36.8343C8.5039 37.2734 8.43551 37.7939 8.56502 38.2831L42.2325 49.7115ZM42.2325 49.7115L42.0882 49.9615M42.2325 49.7115L42.0882 49.9615M42.0882 49.9615L39.4381 54.5501C39.4381 54.5502 39.438 54.5503 39.438 54.5504C39.1849 54.9867 38.7691 55.3049 38.2817 55.4351C37.7944 55.5653 37.2754 55.497 36.8384 55.2451L42.0882 49.9615ZM8.89142 38.948C8.7398 38.7501 8.62887 38.5241 8.56503 38.2831L8.89142 38.948Z" stroke="#4F4F4F"/>
<path d="M26.0598 24.5635L29.625 20.0363V19.1091H21.5222V20.2727H27.9685L24.4752 24.6907V25.6543H25.3755C27.7164 25.6543 28.7787 26.6543 28.7787 28.1815C28.7787 29.7633 27.6263 30.7451 25.5376 30.7451C23.899 30.7451 22.4405 30.1269 21.6302 29.2724L21 30.3087C21.9723 31.3087 23.719 31.945 25.5376 31.945C28.5807 31.945 30.1112 30.3087 30.1112 28.1815C30.1112 26.1452 28.7607 24.7089 26.0598 24.5635Z" fill="#4F4F4F"/>
<path d="M36.9618 31.945C39.8788 31.945 42.0035 29.5269 42.0035 25.4725C42.0035 21.4181 39.8788 19 36.9618 19C34.0447 19 31.938 21.4181 31.938 25.4725C31.938 29.5269 34.0447 31.945 36.9618 31.945ZM36.9618 30.7451C34.765 30.7451 33.2525 28.8724 33.2525 25.4725C33.2525 22.0726 34.765 20.2 36.9618 20.2C39.1585 20.2 40.6711 22.0726 40.6711 25.4725C40.6711 28.8724 39.1585 30.7451 36.9618 30.7451Z" fill="#4F4F4F"/>
<path d="M21.5297 42.1123H24.2072C26.3116 42.1123 27.7302 40.7463 27.7302 38.7923C27.7302 36.8382 26.3116 35.4722 24.2072 35.4722H21.5297V42.1123ZM22.2249 41.5052V36.0793H24.1696C25.917 36.0793 27.0444 37.1986 27.0444 38.7923C27.0444 40.3859 25.917 41.5052 24.1696 41.5052H22.2249Z" fill="#4F4F4F"/>
<path d="M30.879 37.0848C30.0992 37.0848 29.3664 37.3314 28.8685 37.7583L29.1692 38.2611C29.5731 37.9006 30.1744 37.6729 30.8132 37.6729C31.7339 37.6729 32.213 38.1377 32.213 38.9915V39.295H30.6441C29.2255 39.295 28.737 39.94 28.737 40.7084C28.737 41.5716 29.4228 42.1597 30.5408 42.1597C31.3581 42.1597 31.9406 41.8467 32.2412 41.3345V42.1123H32.88V39.0199C32.88 37.7298 32.1566 37.0848 30.879 37.0848ZM30.6441 41.6285C29.855 41.6285 29.3946 41.2681 29.3946 40.6894C29.3946 40.1772 29.7046 39.7978 30.6629 39.7978H32.213V40.6135C31.95 41.2681 31.3957 41.6285 30.6441 41.6285Z" fill="#4F4F4F"/>
<path d="M38.0948 37.1227L36.2346 41.3629L34.3745 37.1227H33.6793L35.887 42.1028L35.671 42.5866C35.3891 43.2127 35.0885 43.4214 34.6469 43.4214C34.2899 43.4214 33.9893 43.2886 33.7451 43.0419L33.435 43.5447C33.7357 43.8482 34.1772 44 34.6375 44C35.3421 44 35.8682 43.687 36.2816 42.7099L38.7524 37.1227H38.0948Z" fill="#4F4F4F"/>
<path d="M40.9614 42.1597C42.2484 42.1597 43 41.6001 43 40.7369C43 38.8207 39.7964 39.8357 39.7964 38.4887C39.7964 38.0144 40.191 37.6634 41.0835 37.6634C41.5908 37.6634 42.1075 37.7868 42.5397 38.0903L42.8309 37.5496C42.4175 37.265 41.7223 37.0848 41.0835 37.0848C39.8246 37.0848 39.1294 37.6919 39.1294 38.5077C39.1294 40.4807 42.333 39.4563 42.333 40.7558C42.333 41.2491 41.9478 41.5716 41.0083 41.5716C40.3131 41.5716 39.6461 41.325 39.2515 41.012L38.9509 41.5432C39.3549 41.8941 40.144 42.1597 40.9614 42.1597Z" fill="#4F4F4F"/>
</svg>
