<svg width="64" height="64" viewBox="0 0 64 64" fill="none" xmlns="http://www.w3.org/2000/svg">
<path fillRule="evenodd" clipRule="evenodd" d="M31.6391 61.1686C47.9479 61.1686 61.1688 47.9478 61.1688 31.6389C61.1688 15.3301 47.9479 2.10925 31.6391 2.10925C15.3302 2.10925 2.10938 15.3301 2.10938 31.6389C2.10938 47.9478 15.3302 61.1686 31.6391 61.1686Z" stroke="#4F4F4F"/>
<path d="M42.7118 45.7548H19.591C17.9142 45.7548 16.5488 44.3895 16.5488 42.7126V22.0256C16.5488 20.3487 17.9142 18.9834 19.591 18.9834H42.7118C44.3887 18.9834 45.754 20.3487 45.754 22.0256V42.7126C45.754 44.3895 44.3887 45.7548 42.7118 45.7548ZM19.591 20.2003C18.5847 20.2003 17.7657 21.0192 17.7657 22.0256V42.7126C17.7657 43.719 18.5847 44.5379 19.591 44.5379H42.7118C43.7182 44.5379 44.5371 43.719 44.5371 42.7126V22.0256C44.5371 21.0192 43.7182 20.2003 42.7118 20.2003H19.591Z" fill="#4F4F4F"/>
<path fillRule="evenodd" clipRule="evenodd" d="M45.1456 27.5016H17.1573C16.8214 27.5016 16.5488 27.229 16.5488 26.8931C16.5488 26.5573 16.8214 26.2847 17.1573 26.2847H45.1456C45.4814 26.2847 45.754 26.5573 45.754 26.8931C45.754 27.229 45.4814 27.5016 45.1456 27.5016Z" fill="#4F4F4F"/>
<path fillRule="evenodd" clipRule="evenodd" d="M23.2413 22.634C22.9054 22.634 22.6328 22.3615 22.6328 22.0256V17.1581C22.6328 16.8222 22.9054 16.5496 23.2413 16.5496C23.5771 16.5496 23.8497 16.8222 23.8497 17.1581V22.0256C23.8497 22.3615 23.5771 22.634 23.2413 22.634Z" fill="#4F4F4F"/>
<path fillRule="evenodd" clipRule="evenodd" d="M39.0616 22.634C38.7257 22.634 38.4531 22.3615 38.4531 22.0256V17.1581C38.4531 16.8222 38.7257 16.5496 39.0616 16.5496C39.3974 16.5496 39.67 16.8222 39.67 17.1581V22.0256C39.67 22.3615 39.3974 22.634 39.0616 22.634Z" fill="#4F4F4F"/>
</svg>
