<svg width="64" height="64" viewBox="0 0 64 64" fill="none" xmlns="http://www.w3.org/2000/svg">
<path fillRule="evenodd" clipRule="evenodd" d="M31.6391 61.1686C47.9479 61.1686 61.1688 47.9478 61.1688 31.6389C61.1688 15.3301 47.9479 2.10925 31.6391 2.10925C15.3302 2.10925 2.10938 15.3301 2.10938 31.6389C2.10938 47.9478 15.3302 61.1686 31.6391 61.1686Z" stroke="#4F4F4F"/>
<path d="M25.0212 37.2876C23.2494 37.2876 21.8086 38.7497 21.8086 40.5477C21.8086 42.3457 23.2494 43.8078 25.0212 43.8078C26.7929 43.8078 28.2337 42.3457 28.2337 40.5477C28.2337 38.7497 26.7929 37.2876 25.0212 37.2876ZM25.0212 42.7211C23.8401 42.7211 22.8795 41.7463 22.8795 40.5477C22.8795 39.3491 23.8401 38.3744 25.0212 38.3744C26.2024 38.3744 27.1629 39.3491 27.1629 40.5477C27.1629 41.7463 26.2024 42.7211 25.0212 42.7211Z" fill="#4F4F4F"/>
<path d="M43.2223 37.2876C41.4506 37.2876 40.0098 38.7497 40.0098 40.5477C40.0098 42.3457 41.4506 43.8078 43.2223 43.8078C44.9941 43.8078 46.4349 42.3457 46.4349 40.5477C46.4349 38.7497 44.9941 37.2876 43.2223 37.2876ZM43.2224 42.7211C42.0412 42.7211 41.0807 41.7463 41.0807 40.5477C41.0807 39.3491 42.0413 38.3744 43.2224 38.3744C44.4036 38.3744 45.3641 39.3491 45.3641 40.5477C45.3641 41.7463 44.4036 42.7211 43.2224 42.7211Z" fill="#4F4F4F"/>
<path fillRule="evenodd" clipRule="evenodd" d="M49.5653 34.2768L44.7465 26.6699C44.648 26.5145 44.4783 26.4205 44.2962 26.4205H38.4065C38.1104 26.4205 37.8711 26.6639 37.8711 26.9638V40.5476C37.8711 40.848 38.1104 41.0909 38.4065 41.0909H40.5482V40.0042H38.9419V27.5072H44.0039L48.5797 34.7305V40.0043H45.9025V41.0909H49.1151C49.4111 41.0909 49.6504 40.8481 49.6504 40.5476V34.5707C49.6505 34.4669 49.6211 34.3642 49.5653 34.2768Z" fill="#4F4F4F"/>
<path fillRule="evenodd" clipRule="evenodd" d="M41.0806 33.484V29.6806H45.364V28.5939H40.5452C40.2491 28.5939 40.0098 28.8373 40.0098 29.1372V34.0274C40.0098 34.3278 40.2491 34.5707 40.5452 34.5707H48.5766V33.484H41.0806V33.484Z" fill="#4F4F4F"/>
<path fillRule="evenodd" clipRule="evenodd" d="M38.4051 22.617H18.0588C17.7633 22.617 17.5234 22.8604 17.5234 23.1603V40.5476C17.5234 40.8481 17.7633 41.0909 18.0588 41.0909H22.3423V40.0042H18.5943V23.7037H37.8698V40.0042H27.6966V41.0909H38.4051C38.7013 41.0909 38.9406 40.8481 38.9406 40.5476V23.1603C38.9406 22.8604 38.7013 22.617 38.4051 22.617Z" fill="#4F4F4F"/>
<path fillRule="evenodd" clipRule="evenodd" d="M18.0586 37.8309H21.2712V38.9176H18.0586V37.8309Z" fill="#4F4F4F"/>
<path fillRule="evenodd" clipRule="evenodd" d="M28.7676 37.8309H37.8699V38.9176H28.7676V37.8309Z" fill="#4F4F4F"/>
<path fillRule="evenodd" clipRule="evenodd" d="M46.9727 37.8309H49.1144V38.9176H46.9727V37.8309Z" fill="#4F4F4F"/>
<path fillRule="evenodd" clipRule="evenodd" d="M19.666 24.7904H38.4061V25.8771H19.666V24.7904Z" fill="#4F4F4F"/>
<path fillRule="evenodd" clipRule="evenodd" d="M24.4844 40.0043H25.5553V41.0911H24.4844V40.0043Z" fill="#4F4F4F"/>
<path fillRule="evenodd" clipRule="evenodd" d="M42.6875 40.0043H43.7584V41.0911H42.6875V40.0043Z" fill="#4F4F4F"/>
<path fillRule="evenodd" clipRule="evenodd" d="M19.666 20.4436H27.1621V21.5303H19.666V20.4436Z" fill="#4F4F4F"/>
<path fillRule="evenodd" clipRule="evenodd" d="M17.5234 20.4436H18.5943V21.5303H17.5234V20.4436Z" fill="#4F4F4F"/>
</svg>
