<svg width="42" height="39" viewBox="0 0 42 39" fill="none" xmlns="http://www.w3.org/2000/svg">
<path fillRule="evenodd" clipRule="evenodd" d="M4.12929 33.8665L37.1699 33.8665L34.2423 6.19495L7.05694 6.19496L4.12929 33.8665ZM7.65635 32.2142C8.13811 32.2142 8.5423 31.8509 8.59345 31.3719L11.0401 8.45921C11.0986 7.91139 10.6692 7.43375 10.1183 7.43375C9.6449 7.43375 9.24755 7.79045 9.19665 8.26112L6.71938 31.1705C6.65912 31.7278 7.09576 32.2142 7.65635 32.2142Z" fill="#DEB282"/>
<path d="M33.04 4.54306L8.25957 4.54306L16.2374 -2.47571e-05L25.0622 -2.55286e-05L33.04 4.54306Z" fill="#DEB282"/>
<rect x="41.3008" y="38.4097" width="41.3008" height="2.89106" transform="rotate(180 41.3008 38.4097)" fill="#DEB282"/>
</svg>
