<svg width="45" height="42" viewBox="0 0 45 42" fill="none" xmlns="http://www.w3.org/2000/svg">
<mask id="path-1-outside-1_313_1500" maskUnits="userSpaceOnUse" x="4.16992" y="5.45682" width="37" height="32" fill="black">
<rect fill="white" x="4.16992" y="5.45682" width="37" height="32"/>
<path fillRule="evenodd" clipRule="evenodd" d="M6.12929 35.4568L39.1699 35.4568L36.2423 7.78529L9.05694 7.78529L6.12929 35.4568ZM9.65635 33.8046C10.1381 33.8046 10.5423 33.4412 10.5935 32.9622L13.0401 10.0495C13.0986 9.50172 12.6692 9.02408 12.1183 9.02408C11.6449 9.02408 11.2475 9.38079 11.1967 9.85145L8.71938 32.7608C8.65912 33.3182 9.09576 33.8046 9.65635 33.8046Z"/>
</mask>
<path fillRule="evenodd" clipRule="evenodd" d="M6.12929 35.4568L39.1699 35.4568L36.2423 7.78529L9.05694 7.78529L6.12929 35.4568ZM9.65635 33.8046C10.1381 33.8046 10.5423 33.4412 10.5935 32.9622L13.0401 10.0495C13.0986 9.50172 12.6692 9.02408 12.1183 9.02408C11.6449 9.02408 11.2475 9.38079 11.1967 9.85145L8.71938 32.7608C8.65912 33.3182 9.09576 33.8046 9.65635 33.8046Z" fill="#FEFEFE"/>
<path d="M39.1699 35.4568L39.1699 36.9568C39.5952 36.9568 40.0005 36.7763 40.285 36.4601C40.5695 36.144 40.7063 35.7219 40.6616 35.299L39.1699 35.4568ZM6.12929 35.4568L4.63761 35.299C4.59287 35.7219 4.72976 36.144 5.01423 36.4601C5.29869 36.7763 5.70399 36.9568 6.12929 36.9568L6.12929 35.4568ZM36.2423 7.78529L37.7339 7.62747C37.6532 6.86439 37.0096 6.28529 36.2423 6.28529L36.2423 7.78529ZM9.05694 7.78529L9.05694 6.28529C8.2896 6.28529 7.646 6.86439 7.56526 7.62747L9.05694 7.78529ZM10.5935 32.9622L9.10193 32.8029L9.10193 32.8029L10.5935 32.9622ZM13.0401 10.0495L11.5486 9.89028L11.5486 9.89028L13.0401 10.0495ZM11.1967 9.85145L9.70534 9.69019L9.70534 9.69019L11.1967 9.85145ZM8.71938 32.7608L7.22808 32.5996L7.22808 32.5996L8.71938 32.7608ZM39.1699 33.9568L6.12929 33.9568L6.12929 36.9568L39.1699 36.9568L39.1699 33.9568ZM34.7506 7.94311L37.6782 35.6146L40.6616 35.299L37.7339 7.62747L34.7506 7.94311ZM9.05694 9.28529L36.2423 9.28529L36.2423 6.28529L9.05694 6.28529L9.05694 9.28529ZM7.62096 35.6146L10.5486 7.94311L7.56526 7.62747L4.63761 35.299L7.62096 35.6146ZM9.10193 32.8029C9.1322 32.5195 9.37133 32.3046 9.65635 32.3046L9.65635 35.3046C10.9049 35.3046 11.9524 34.3629 12.085 33.1215L9.10193 32.8029ZM11.5486 9.89028L9.10193 32.8029L12.085 33.1215L14.5316 10.2088L11.5486 9.89028ZM12.1183 10.5241C11.7778 10.5241 11.5124 10.2289 11.5486 9.89028L14.5316 10.2088C14.6848 8.77458 13.5607 7.52408 12.1183 7.52408L12.1183 10.5241ZM12.688 10.0127C12.6565 10.3036 12.4109 10.5241 12.1183 10.5241L12.1183 7.52408C10.8789 7.52408 9.83859 8.45796 9.70534 9.69019L12.688 10.0127ZM10.2107 32.9221L12.688 10.0127L9.70534 9.69019L7.22808 32.5996L10.2107 32.9221ZM9.65635 32.3046C9.98802 32.3046 10.2463 32.5923 10.2107 32.9221L7.22808 32.5996C7.07189 34.044 8.20351 35.3046 9.65635 35.3046L9.65635 32.3046Z" fill="black" mask="url(#path-1-outside-1_313_1500)"/>
<path d="M35.3008 6.75C35.649 6.75 35.9513 6.51039 36.0309 6.17143C36.1105 5.83248 35.9464 5.48333 35.6346 5.32837L27.586 1.32837C27.4823 1.27682 27.3681 1.25 27.2523 1.25L18.3493 1.25C18.2335 1.25 18.1192 1.27682 18.0155 1.32837L9.96699 5.32837C9.6552 5.48333 9.49105 5.83248 9.57064 6.17144C9.65022 6.51039 9.95261 6.75 10.3008 6.75L35.3008 6.75Z" fill="#FEFEFE" stroke="black" strokeWidth="1.5" strokeLinejoin="round"/>
<rect x="44.0508" y="40.75" width="42.8008" height="4.39106" transform="rotate(180 44.0508 40.75)" fill="#FEFEFE" stroke="black" strokeWidth="1.5" strokeLinejoin="round"/>
</svg>
