<svg width="42" height="39" viewBox="0 0 42 39" fill="none" xmlns="http://www.w3.org/2000/svg">
<path fillRule="evenodd" clipRule="evenodd" d="M4.12929 33.8665L37.1699 33.8665L34.2423 6.19498L7.05694 6.19499L4.12929 33.8665ZM7.65635 32.2143C8.13811 32.2143 8.5423 31.8509 8.59345 31.3719L11.0401 8.45925C11.0986 7.91142 10.6692 7.43378 10.1183 7.43378C9.6449 7.43378 9.24755 7.79048 9.19665 8.26115L6.71938 31.1705C6.65912 31.7278 7.09576 32.2143 7.65635 32.2143Z" fill="#7F5635"/>
<path d="M33.04 4.54309L8.25957 4.54309L16.2374 5.87968e-06L25.0622 5.10819e-06L33.04 4.54309Z" fill="#7F5635"/>
<rect x="41.3008" y="38.4097" width="41.3008" height="2.89106" transform="rotate(180 41.3008 38.4097)" fill="#7F5635"/>
</svg>
