<svg width="125" height="8" viewBox="0 0 125 8" fill="none" xmlns="http://www.w3.org/2000/svg">
<g clipPath="url(#clip0_655_418)">
<path d="M7.35787 5.87315C7.22162 4.97559 6.79342 2.55609 6.65717 1.61951C5.87034 2.15469 4.94132 2.44083 3.99045 2.44083C3.03959 2.44083 2.11063 2.15469 1.3238 1.61951C1.3238 1.9317 0.817715 4.81953 0.778786 5.05367C0.739857 5.28782 0.662043 5.71705 0.642578 5.87315C0.954014 7.94144 7.04643 7.92193 7.35787 5.87315Z" fill="#C7A17A"/>
<path d="M3.99002 4.29007e-05C2.97786 4.29007e-05 2.58856 0.604914 3.99002 0.66345C5.39148 0.721987 5.02165 -0.0194693 3.99002 4.29007e-05Z" fill="#C7A17A"/>
<path d="M7.55189 5.56095C7.84386 7.18047 5.41074 7.64879 3.98981 7.6683C2.56889 7.68782 0.0968947 7.2 0.427795 5.58049V5.13168C-0.487047 5.93168 -0.0977382 6.82927 1.05068 7.41464C1.9575 7.80601 2.93444 8.00784 3.92174 8.00784C4.90904 8.00784 5.88591 7.80601 6.79274 7.41464C7.94116 6.84878 8.33047 5.95121 7.41562 5.15121L7.55189 5.56095Z" fill="#C7A17A"/>
<path d="M3.99068 2.20485C6.48217 2.20485 7.70846 0.819485 5.15858 0.253632C5.47001 1.19022 2.51137 1.19022 2.84227 0.253632C0.27293 0.799973 1.4992 2.22436 3.99068 2.20485Z" fill="#C7A17A"/>
</g>
<g clipPath="url(#clip1_655_418)">
<path d="M59.3579 5.87315C59.2216 4.97559 58.7934 2.55609 58.6572 1.61951C57.8703 2.15469 56.9413 2.44083 55.9905 2.44083C55.0396 2.44083 54.1106 2.15469 53.3238 1.61951C53.3238 1.9317 52.8177 4.81953 52.7788 5.05367C52.7399 5.28782 52.662 5.71705 52.6426 5.87315C52.954 7.94144 59.0464 7.92193 59.3579 5.87315Z" fill="#C7A17A"/>
<path d="M55.99 4.29007e-05C54.9779 4.29007e-05 54.5886 0.604914 55.99 0.66345C57.3915 0.721987 57.0217 -0.0194693 55.99 4.29007e-05Z" fill="#C7A17A"/>
<path d="M59.5519 5.56095C59.8439 7.18047 57.4107 7.64879 55.9898 7.6683C54.5689 7.68782 52.0969 7.2 52.4278 5.58049V5.13168C51.513 5.93168 51.9023 6.82927 53.0507 7.41464C53.9575 7.80601 54.9344 8.00784 55.9217 8.00784C56.909 8.00784 57.8859 7.80601 58.7927 7.41464C59.9412 6.84878 60.3305 5.95121 59.4156 5.15121L59.5519 5.56095Z" fill="#C7A17A"/>
<path d="M55.9907 2.20485C58.4822 2.20485 59.7085 0.819485 57.1586 0.253632C57.47 1.19022 54.5114 1.19022 54.8423 0.253632C52.2729 0.799973 53.4992 2.22436 55.9907 2.20485Z" fill="#C7A17A"/>
</g>
<g clipPath="url(#clip2_655_418)">
<path d="M33.3579 5.87315C33.2216 4.97559 32.7934 2.55609 32.6572 1.61951C31.8703 2.15469 30.9413 2.44083 29.9905 2.44083C29.0396 2.44083 28.1106 2.15469 27.3238 1.61951C27.3238 1.9317 26.8177 4.81953 26.7788 5.05367C26.7399 5.28782 26.662 5.71705 26.6426 5.87315C26.954 7.94144 33.0464 7.92193 33.3579 5.87315Z" fill="#C7A17A"/>
<path d="M29.99 4.29007e-05C28.9779 4.29007e-05 28.5886 0.604914 29.99 0.66345C31.3915 0.721987 31.0217 -0.0194693 29.99 4.29007e-05Z" fill="#C7A17A"/>
<path d="M33.5519 5.56095C33.8439 7.18047 31.4107 7.64879 29.9898 7.6683C28.5689 7.68782 26.0969 7.2 26.4278 5.58049V5.13168C25.513 5.93168 25.9023 6.82927 27.0507 7.41464C27.9575 7.80601 28.9344 8.00784 29.9217 8.00784C30.909 8.00784 31.8859 7.80601 32.7927 7.41464C33.9412 6.84878 34.3305 5.95121 33.4156 5.15121L33.5519 5.56095Z" fill="#C7A17A"/>
<path d="M29.9907 2.20485C32.4822 2.20485 33.7085 0.819485 31.1586 0.253632C31.47 1.19022 28.5114 1.19022 28.8423 0.253632C26.2729 0.799973 27.4992 2.22436 29.9907 2.20485Z" fill="#C7A17A"/>
</g>
<g clipPath="url(#clip3_655_418)">
<path d="M85.3579 5.87315C85.2216 4.97559 84.7934 2.55609 84.6572 1.61951C83.8703 2.15469 82.9413 2.44083 81.9905 2.44083C81.0396 2.44083 80.1106 2.15469 79.3238 1.61951C79.3238 1.9317 78.8177 4.81953 78.7788 5.05367C78.7399 5.28782 78.662 5.71705 78.6426 5.87315C78.954 7.94144 85.0464 7.92193 85.3579 5.87315Z" fill="#C7A17A"/>
<path d="M81.99 4.29007e-05C80.9779 4.29007e-05 80.5886 0.604914 81.99 0.66345C83.3915 0.721987 83.0217 -0.0194693 81.99 4.29007e-05Z" fill="#C7A17A"/>
<path d="M85.5519 5.56095C85.8439 7.18047 83.4107 7.64879 81.9898 7.6683C80.5689 7.68782 78.0969 7.2 78.4278 5.58049V5.13168C77.513 5.93168 77.9023 6.82927 79.0507 7.41464C79.9575 7.80601 80.9344 8.00784 81.9217 8.00784C82.909 8.00784 83.8859 7.80601 84.7927 7.41464C85.9412 6.84878 86.3305 5.95121 85.4156 5.15121L85.5519 5.56095Z" fill="#C7A17A"/>
<path d="M81.9907 2.20485C84.4822 2.20485 85.7085 0.819485 83.1586 0.253632C83.47 1.19022 80.5114 1.19022 80.8423 0.253632C78.2729 0.799973 79.4992 2.22436 81.9907 2.20485Z" fill="#C7A17A"/>
</g>
<g opacity="0.4" clipPath="url(#clip4_655_418)">
<path d="M111.358 5.87315C111.222 4.97559 110.793 2.55609 110.657 1.61951C109.87 2.15469 108.941 2.44083 107.99 2.44083C107.04 2.44083 106.111 2.15469 105.324 1.61951C105.324 1.9317 104.818 4.81953 104.779 5.05367C104.74 5.28782 104.662 5.71705 104.643 5.87315C104.954 7.94144 111.046 7.92193 111.358 5.87315Z" fill="#C7A17A"/>
<path d="M107.99 4.29007e-05C106.978 4.29007e-05 106.589 0.604914 107.99 0.66345C109.391 0.721987 109.022 -0.0194693 107.99 4.29007e-05Z" fill="#C7A17A"/>
<path d="M111.552 5.56095C111.844 7.18047 109.411 7.64879 107.99 7.6683C106.569 7.68782 104.097 7.2 104.428 5.58049V5.13168C103.513 5.93168 103.902 6.82927 105.051 7.41464C105.958 7.80601 106.934 8.00784 107.922 8.00784C108.909 8.00784 109.886 7.80601 110.793 7.41464C111.941 6.84878 112.33 5.95121 111.416 5.15121L111.552 5.56095Z" fill="#C7A17A"/>
<path d="M107.991 2.20485C110.482 2.20485 111.708 0.819485 109.159 0.253632C109.47 1.19022 106.511 1.19022 106.842 0.253632C104.273 0.799973 105.499 2.22436 107.991 2.20485Z" fill="#C7A17A"/>
</g>
<g clipPath="url(#clip5_655_418)">
<path d="M20.3579 5.87315C20.2216 4.97559 19.7934 2.55609 19.6572 1.61951C18.8703 2.15469 17.9413 2.44083 16.9905 2.44083C16.0396 2.44083 15.1106 2.15469 14.3238 1.61951C14.3238 1.9317 13.8177 4.81953 13.7788 5.05367C13.7399 5.28782 13.662 5.71705 13.6426 5.87315C13.954 7.94144 20.0464 7.92193 20.3579 5.87315Z" fill="#C7A17A"/>
<path d="M16.99 4.29007e-05C15.9779 4.29007e-05 15.5886 0.604914 16.99 0.66345C18.3915 0.721987 18.0217 -0.0194693 16.99 4.29007e-05Z" fill="#C7A17A"/>
<path d="M20.5519 5.56095C20.8439 7.18047 18.4107 7.64879 16.9898 7.6683C15.5689 7.68782 13.0969 7.2 13.4278 5.58049V5.13168C12.513 5.93168 12.9023 6.82927 14.0507 7.41464C14.9575 7.80601 15.9344 8.00784 16.9217 8.00784C17.909 8.00784 18.8859 7.80601 19.7927 7.41464C20.9412 6.84878 21.3305 5.95121 20.4156 5.15121L20.5519 5.56095Z" fill="#C7A17A"/>
<path d="M16.9907 2.20485C19.4822 2.20485 20.7085 0.819485 18.1586 0.253632C18.47 1.19022 15.5114 1.19022 15.8423 0.253632C13.2729 0.799973 14.4992 2.22436 16.9907 2.20485Z" fill="#C7A17A"/>
</g>
<g clipPath="url(#clip6_655_418)">
<path d="M72.3579 5.87315C72.2216 4.97559 71.7934 2.55609 71.6572 1.61951C70.8703 2.15469 69.9413 2.44083 68.9905 2.44083C68.0396 2.44083 67.1106 2.15469 66.3238 1.61951C66.3238 1.9317 65.8177 4.81953 65.7788 5.05367C65.7399 5.28782 65.662 5.71705 65.6426 5.87315C65.954 7.94144 72.0464 7.92193 72.3579 5.87315Z" fill="#C7A17A"/>
<path d="M68.99 4.29007e-05C67.9779 4.29007e-05 67.5886 0.604914 68.99 0.66345C70.3915 0.721987 70.0217 -0.0194693 68.99 4.29007e-05Z" fill="#C7A17A"/>
<path d="M72.5519 5.56095C72.8439 7.18047 70.4107 7.64879 68.9898 7.6683C67.5689 7.68782 65.0969 7.2 65.4278 5.58049V5.13168C64.513 5.93168 64.9023 6.82927 66.0507 7.41464C66.9575 7.80601 67.9344 8.00784 68.9217 8.00784C69.909 8.00784 70.8859 7.80601 71.7927 7.41464C72.9412 6.84878 73.3305 5.95121 72.4156 5.15121L72.5519 5.56095Z" fill="#C7A17A"/>
<path d="M68.9907 2.20485C71.4822 2.20485 72.7085 0.819485 70.1586 0.253632C70.47 1.19022 67.5114 1.19022 67.8423 0.253632C65.2729 0.799973 66.4992 2.22436 68.9907 2.20485Z" fill="#C7A17A"/>
</g>
<g clipPath="url(#clip7_655_418)">
<path d="M46.3579 5.87315C46.2216 4.97559 45.7934 2.55609 45.6572 1.61951C44.8703 2.15469 43.9413 2.44083 42.9905 2.44083C42.0396 2.44083 41.1106 2.15469 40.3238 1.61951C40.3238 1.9317 39.8177 4.81953 39.7788 5.05367C39.7399 5.28782 39.662 5.71705 39.6426 5.87315C39.954 7.94144 46.0464 7.92193 46.3579 5.87315Z" fill="#C7A17A"/>
<path d="M42.99 4.29007e-05C41.9779 4.29007e-05 41.5886 0.604914 42.99 0.66345C44.3915 0.721987 44.0217 -0.0194693 42.99 4.29007e-05Z" fill="#C7A17A"/>
<path d="M46.5519 5.56095C46.8439 7.18047 44.4107 7.64879 42.9898 7.6683C41.5689 7.68782 39.0969 7.2 39.4278 5.58049V5.13168C38.513 5.93168 38.9023 6.82927 40.0507 7.41464C40.9575 7.80601 41.9344 8.00784 42.9217 8.00784C43.909 8.00784 44.8859 7.80601 45.7927 7.41464C46.9412 6.84878 47.3305 5.95121 46.4156 5.15121L46.5519 5.56095Z" fill="#C7A17A"/>
<path d="M42.9907 2.20485C45.4822 2.20485 46.7085 0.819485 44.1586 0.253632C44.47 1.19022 41.5114 1.19022 41.8423 0.253632C39.2729 0.799973 40.4992 2.22436 42.9907 2.20485Z" fill="#C7A17A"/>
</g>
<g opacity="0.4" clipPath="url(#clip8_655_418)">
<path d="M98.3579 5.87315C98.2216 4.97559 97.7934 2.55609 97.6572 1.61951C96.8703 2.15469 95.9413 2.44083 94.9905 2.44083C94.0396 2.44083 93.1106 2.15469 92.3238 1.61951C92.3238 1.9317 91.8177 4.81953 91.7788 5.05367C91.7399 5.28782 91.662 5.71705 91.6426 5.87315C91.954 7.94144 98.0464 7.92193 98.3579 5.87315Z" fill="#C7A17A"/>
<path d="M94.99 4.29007e-05C93.9779 4.29007e-05 93.5886 0.604914 94.99 0.66345C96.3915 0.721987 96.0217 -0.0194693 94.99 4.29007e-05Z" fill="#C7A17A"/>
<path d="M98.5519 5.56095C98.8439 7.18047 96.4107 7.64879 94.9898 7.6683C93.5689 7.68782 91.0969 7.2 91.4278 5.58049V5.13168C90.513 5.93168 90.9023 6.82927 92.0507 7.41464C92.9575 7.80601 93.9344 8.00784 94.9217 8.00784C95.909 8.00784 96.8859 7.80601 97.7927 7.41464C98.9412 6.84878 99.3305 5.95121 98.4156 5.15121L98.5519 5.56095Z" fill="#C7A17A"/>
<path d="M94.9907 2.20485C97.4822 2.20485 98.7085 0.819485 96.1586 0.253632C96.47 1.19022 93.5114 1.19022 93.8423 0.253632C91.2729 0.799973 92.4992 2.22436 94.9907 2.20485Z" fill="#C7A17A"/>
</g>
<g opacity="0.4" clipPath="url(#clip9_655_418)">
<path d="M124.358 5.87315C124.222 4.97559 123.793 2.55609 123.657 1.61951C122.87 2.15469 121.941 2.44083 120.99 2.44083C120.04 2.44083 119.111 2.15469 118.324 1.61951C118.324 1.9317 117.818 4.81953 117.779 5.05367C117.74 5.28782 117.662 5.71705 117.643 5.87315C117.954 7.94144 124.046 7.92193 124.358 5.87315Z" fill="#C7A17A"/>
<path d="M120.99 4.29007e-05C119.978 4.29007e-05 119.589 0.604914 120.99 0.66345C122.391 0.721987 122.022 -0.0194693 120.99 4.29007e-05Z" fill="#C7A17A"/>
<path d="M124.552 5.56095C124.844 7.18047 122.411 7.64879 120.99 7.6683C119.569 7.68782 117.097 7.2 117.428 5.58049V5.13168C116.513 5.93168 116.902 6.82927 118.051 7.41464C118.958 7.80601 119.934 8.00784 120.922 8.00784C121.909 8.00784 122.886 7.80601 123.793 7.41464C124.941 6.84878 125.33 5.95121 124.416 5.15121L124.552 5.56095Z" fill="#C7A17A"/>
<path d="M120.991 2.20485C123.482 2.20485 124.708 0.819485 122.159 0.253632C122.47 1.19022 119.511 1.19022 119.842 0.253632C117.273 0.799973 118.499 2.22436 120.991 2.20485Z" fill="#C7A17A"/>
</g>
<defs>
<clipPath id="clip0_655_418">
<rect width="8" height="8" fill="white"/>
</clipPath>
<clipPath id="clip1_655_418">
<rect width="8" height="8" fill="white" transform="translate(52)"/>
</clipPath>
<clipPath id="clip2_655_418">
<rect width="8" height="8" fill="white" transform="translate(26)"/>
</clipPath>
<clipPath id="clip3_655_418">
<rect width="8" height="8" fill="white" transform="translate(78)"/>
</clipPath>
<clipPath id="clip4_655_418">
<rect width="8" height="8" fill="white" transform="translate(104)"/>
</clipPath>
<clipPath id="clip5_655_418">
<rect width="8" height="8" fill="white" transform="translate(13)"/>
</clipPath>
<clipPath id="clip6_655_418">
<rect width="8" height="8" fill="white" transform="translate(65)"/>
</clipPath>
<clipPath id="clip7_655_418">
<rect width="8" height="8" fill="white" transform="translate(39)"/>
</clipPath>
<clipPath id="clip8_655_418">
<rect width="8" height="8" fill="white" transform="translate(91)"/>
</clipPath>
<clipPath id="clip9_655_418">
<rect width="8" height="8" fill="white" transform="translate(117)"/>
</clipPath>
</defs>
</svg>
