<svg width="29" height="20" viewBox="0 0 29 20" fill="none" xmlns="http://www.w3.org/2000/svg">
<path d="M7.27921 18.5814C8.66634 18.5814 9.79083 17.4569 9.79083 16.0697C9.79083 14.6826 8.66634 13.5581 7.27921 13.5581C5.89207 13.5581 4.76758 14.6826 4.76758 16.0697C4.76758 17.4569 5.89207 18.5814 7.27921 18.5814Z" stroke="#7AD8E7" strokeWidth="1.5" strokeLinecap="round" strokeLinejoin="round"/>
<path d="M22.3495 18.5814C23.7367 18.5814 24.8611 17.4569 24.8611 16.0697C24.8611 14.6826 23.7367 13.5581 22.3495 13.5581C20.9624 13.5581 19.8379 14.6826 19.8379 16.0697C19.8379 17.4569 20.9624 18.5814 22.3495 18.5814Z" stroke="#7AD8E7" strokeWidth="1.5" strokeLinecap="round" strokeLinejoin="round"/>
<path d="M4.76744 16.0698H2.25581V11.0465M1 1H17.9535V16.0698M9.7907 16.0698H19.8372M24.8605 16.0698H28V8.53488M28 8.53488H17.9535M28 8.53488L24.2326 2.25581H17.9535M2.25581 6.02326H7.27907" stroke="#7AD8E7" strokeWidth="1.5" strokeLinecap="round" strokeLinejoin="round"/>
</svg>
