<svg width="48" height="48" viewBox="0 0 48 48" fill="none" xmlns="http://www.w3.org/2000/svg">
<circle cx="24" cy="24" r="24" fill="#7AD8E7"/>
<path d="M32 14H20C19.4696 14 18.9609 14.2107 18.5858 14.5858C18.2107 14.9609 18 15.4696 18 16V28C18 28.5304 18.2107 29.0391 18.5858 29.4142C18.9609 29.7893 19.4696 30 20 30H32C32.5304 30 33.0391 29.7893 33.4142 29.4142C33.7893 29.0391 34 28.5304 34 28V16C34 15.4696 33.7893 14.9609 33.4142 14.5858C33.0391 14.2107 32.5304 14 32 14ZM25.067 26.481L21.793 23.207L23.207 21.793L24.933 23.519L29.232 18.36L30.769 19.641L25.067 26.481Z" fill="white"/>
<path d="M16 34H27V32H16V20H14V32C14 33.103 14.897 34 16 34Z" fill="white"/>
</svg>
