<svg width="53" height="46" viewBox="0 0 53 46" fill="none" xmlns="http://www.w3.org/2000/svg">
<path fillRule="evenodd" clipRule="evenodd" d="M29.5033 35.5146C29.5032 35.5146 29.5031 35.5146 29.0424 33.2108L29.5033 35.5146L28.8913 35.637L21.5324 33.184L23.0183 28.7263L29.1947 30.7851C29.2338 30.7774 29.2746 30.7693 29.3171 30.7608C29.7857 30.668 30.4572 30.5355 31.2699 30.3765C32.8948 30.0586 35.0865 29.6344 37.3502 29.2099C39.6114 28.7859 41.9556 28.3596 43.882 28.0385C45.6963 27.7362 47.4093 27.4779 48.2157 27.4779C49.1454 27.4779 50.1898 27.7103 51.0316 28.4469C51.9145 29.2194 52.2569 30.2679 52.2569 31.2371C52.2569 32.9966 51.1853 34.6917 49.877 35.9999C48.6504 37.2265 45.9808 39.5966 42.71 41.678C39.5048 43.7177 35.3685 45.7108 31.2981 45.7108C27.5167 45.7108 24.3971 44.7594 21.8143 43.8985C21.5733 43.8181 21.3394 43.7397 21.1121 43.6634C18.7758 42.8798 17.1284 42.3273 15.5083 42.3273H0.253906V37.6285H15.5083C17.9494 37.6285 20.3645 38.4471 22.5324 39.182C22.792 39.27 23.0481 39.3568 23.3002 39.4408C25.7927 40.2717 28.3124 41.012 31.2981 41.012C33.9947 41.012 37.1894 39.6216 40.1873 37.7138C43.1197 35.8478 45.5253 33.7065 46.5545 32.6774C46.6761 32.5557 46.7851 32.4381 46.8823 32.3254C46.2667 32.412 45.5106 32.5307 44.6545 32.6734C42.7744 32.9868 40.4663 33.4063 38.2161 33.8282C35.9685 34.2497 33.7897 34.6713 32.1721 34.9878C31.3636 35.146 30.6957 35.2778 30.2303 35.37C29.9976 35.4162 29.8155 35.4524 29.6917 35.477L29.5033 35.5146Z" fill="#232323"/>
<path fillRule="evenodd" clipRule="evenodd" d="M20.1131 5.10847V14.0375H15.4143V5.01476C15.4143 3.79341 15.8995 2.62209 16.7631 1.75847C17.6267 0.894847 18.7981 0.409668 20.0194 0.409668H47.0877C48.309 0.409668 49.4803 0.894845 50.3439 1.75847C51.2076 2.62209 51.6927 3.79341 51.6927 5.01476V23.0603H46.9939V5.10847H20.1131ZM10.6578 25.1022C8.74404 26.0602 6.94084 27.2789 5.70138 28.2751L2.75781 24.6125C4.22919 23.43 6.31154 22.0232 8.5544 20.9004C10.7449 19.8039 13.3518 18.8434 15.7959 18.8434C18.2453 18.8434 21.8303 19.2313 25.1242 20.0184C26.7756 20.4131 28.4245 20.9245 29.8532 21.5747C31.2304 22.2014 32.654 23.0679 33.579 24.3013C35.6308 27.037 34.4388 30.0948 33.5225 31.7186C33.0142 32.6194 32.4326 33.3798 31.9912 33.905C31.7674 34.1713 31.5718 34.3863 31.4283 34.5387C31.3564 34.6151 31.297 34.6762 31.253 34.7208C31.231 34.7431 31.2129 34.7613 31.1989 34.7752L31.181 34.7928L31.1745 34.7992L31.1707 34.8029C31.1702 34.8034 31.1697 34.8039 29.5308 33.1205C27.8919 31.4372 27.8914 31.4376 27.891 31.4381L27.8887 31.4403L27.8882 31.4408C27.891 31.438 27.8976 31.4314 27.9078 31.4211C27.9281 31.4005 27.9624 31.3653 28.0081 31.3168C28.0998 31.2195 28.2352 31.0709 28.3941 30.8818C28.7181 30.4962 29.1093 29.9783 29.4303 29.4095C30.1725 28.094 30.0648 27.447 29.82 27.1205C29.5966 26.8228 29.022 26.3589 27.9069 25.8514C26.8432 25.3674 25.5057 24.9407 24.0321 24.5886C21.0763 23.8822 17.8578 23.5422 15.7959 23.5422C14.4447 23.5422 12.6239 24.1179 10.6578 25.1022Z" fill="#232323"/>
<path fillRule="evenodd" clipRule="evenodd" d="M25.5645 0.409668H41.5417V15.2591H25.5645V0.409668ZM30.2632 5.10846V10.5603H36.8429V5.10846H30.2632Z" fill="#7AD8E7"/>
</svg>
