<svg width="55" height="40" viewBox="0 0 55 40" fill="none" xmlns="http://www.w3.org/2000/svg">
<path fillRule="evenodd" clipRule="evenodd" d="M17.199 29.6988C15.7351 29.6988 14.5484 30.8855 14.5484 32.3494C14.5484 33.8133 15.7351 35 17.199 35C18.6629 35 19.8496 33.8133 19.8496 32.3494C19.8496 30.8855 18.6629 29.6988 17.199 29.6988ZM9.84961 32.3494C9.84961 28.2904 13.14 25 17.199 25C21.258 25 24.5484 28.2904 24.5484 32.3494C24.5484 36.4084 21.258 39.6988 17.199 39.6988C13.14 39.6988 9.84961 36.4084 9.84961 32.3494Z" fill="#5F6061"/>
<path fillRule="evenodd" clipRule="evenodd" d="M42.199 29.6988C40.7351 29.6988 39.5484 30.8855 39.5484 32.3494C39.5484 33.8133 40.7351 35 42.199 35C43.6629 35 44.8496 33.8133 44.8496 32.3494C44.8496 30.8855 43.6629 29.6988 42.199 29.6988ZM34.8496 32.3494C34.8496 28.2904 38.14 25 42.199 25C46.258 25 49.5484 28.2904 49.5484 32.3494C49.5484 36.4084 46.258 39.6988 42.199 39.6988C38.14 39.6988 34.8496 36.4084 34.8496 32.3494Z" fill="#5F6061"/>
<path fillRule="evenodd" clipRule="evenodd" d="M30.9341 4.69879H4.69922V0H35.6329V3.79518H47.4791L54.5486 16.7501V34.6988H47.1992V30H49.8498V19.6988H35.6329V30H37.1992V34.6988H22.1992V30H30.9341V4.69879ZM35.6329 8.49398V15H48.2407L44.6903 8.49398H35.6329ZM9.54861 30V22.3494H4.84982V34.6988H12.1992V30H9.54861Z" fill="#5F6061"/>
<path d="M17.1992 12.8312H4.69922V8.13245H17.1992V12.8312Z" fill="#7AD8E7"/>
<path d="M12.4999 19.6988H0V15H12.4999V19.6988Z" fill="#7AD8E7"/>
</svg>
