<svg width="51" height="36" viewBox="0 0 51 36" fill="none" xmlns="http://www.w3.org/2000/svg">
<path d="M42.5605 5.65063C42.5605 2.90063 40.3105 0.650635 37.5605 0.650635H30.0605V5.65063H37.5605V12.2756L28.8605 23.1506H20.0605V10.6506H10.0605C4.53554 10.6506 0.0605469 15.1256 0.0605469 20.6506V28.1506H5.06054C5.06054 32.3006 8.41054 35.6506 12.5605 35.6506C16.7105 35.6506 20.0605 32.3006 20.0605 28.1506H31.2605L42.5605 14.0256V5.65063ZM5.06054 23.1506V20.6506C5.06054 17.9006 7.31054 15.6506 10.0605 15.6506H15.0605V23.1506H5.06054ZM12.5605 30.6506C11.1855 30.6506 10.0605 29.5256 10.0605 28.1506H15.0605C15.0605 29.5256 13.9355 30.6506 12.5605 30.6506Z" fill="#5F6061"/>
<path d="M42.5605 20.6506C38.4105 20.6506 35.0605 24.0006 35.0605 28.1506C35.0605 32.3006 38.4105 35.6506 42.5605 35.6506C46.7105 35.6506 50.0605 32.3006 50.0605 28.1506C50.0605 24.0006 46.7105 20.6506 42.5605 20.6506ZM42.5605 30.6506C41.1855 30.6506 40.0605 29.5256 40.0605 28.1506C40.0605 26.7756 41.1855 25.6506 42.5605 25.6506C43.9355 25.6506 45.0605 26.7756 45.0605 28.1506C45.0605 29.5256 43.9355 30.6506 42.5605 30.6506Z" fill="#5F6061"/>
<path d="M19.9396 0.650635H7.65039V10.7711H19.9396V0.650635Z" fill="#7AD8E7"/>
<path d="M15.6027 0.650635H11.9883V4.2651H15.6027V0.650635Z" fill="#5F6061"/>
</svg>
