<svg width="18" height="18" viewBox="0 0 18 18" fill="none" xmlns="http://www.w3.org/2000/svg">
<path fillRule="evenodd" clipRule="evenodd" d="M9.75137 12.7544C9.75134 12.7544 9.75133 12.7544 9.6131 12.0633L9.75137 12.7544L9.56779 12.7911L7.3601 12.0552L7.80587 10.7179L9.65879 11.3355C9.67053 11.3332 9.68278 11.3308 9.69553 11.3283C9.8361 11.3004 10.0375 11.2607 10.2814 11.213C10.7688 11.1176 11.4263 10.9903 12.1055 10.863C12.7838 10.7358 13.4871 10.6079 14.065 10.5116C14.6093 10.4209 15.1232 10.3434 15.3651 10.3434C15.644 10.3434 15.9573 10.4131 16.2099 10.6341C16.4747 10.8658 16.5775 11.1804 16.5775 11.4711C16.5775 11.999 16.256 12.5075 15.8635 12.9C15.4955 13.268 14.6946 13.979 13.7134 14.6034C12.7518 15.2153 11.5109 15.8133 10.2898 15.8133C9.1554 15.8133 8.21953 15.5278 7.44469 15.2696C7.37238 15.2455 7.30222 15.2219 7.23401 15.199C6.53312 14.964 6.03892 14.7982 5.55287 14.7982H0.976562V13.3886H5.55287C6.28522 13.3886 7.00975 13.6342 7.66012 13.8546C7.738 13.881 7.81482 13.907 7.89046 13.9323C8.6382 14.1815 9.3941 14.4036 10.2898 14.4036C11.0988 14.4036 12.0572 13.9865 12.9566 13.4142C13.8363 12.8543 14.558 12.212 14.8667 11.9032C14.9032 11.8667 14.9359 11.8314 14.9651 11.7976C14.7804 11.8236 14.5536 11.8592 14.2967 11.902C13.7327 11.996 13.0403 12.1219 12.3652 12.2485C11.6909 12.3749 11.0373 12.5014 10.552 12.5964C10.3095 12.6438 10.1091 12.6834 9.96948 12.711C9.89966 12.7249 9.84504 12.7357 9.80791 12.7431L9.75137 12.7544Z" fill="#232323"/>
<path fillRule="evenodd" clipRule="evenodd" d="M6.93511 3.63254V6.31125H5.52547V3.60443C5.52547 3.23802 5.67102 2.88663 5.93011 2.62754C6.18919 2.36845 6.54059 2.2229 6.90699 2.2229H15.0275C15.3939 2.2229 15.7453 2.36845 16.0044 2.62754C16.2634 2.88663 16.409 3.23802 16.409 3.60443V9.01808H14.9994V3.63254H6.93511ZM4.09851 9.63065C3.52438 9.91806 2.98342 10.2837 2.61158 10.5825L1.72852 9.48376C2.16993 9.129 2.79463 8.70697 3.46749 8.37013C4.12465 8.04116 4.90672 7.75302 5.63993 7.75302C6.37476 7.75302 7.45026 7.86939 8.43844 8.10553C8.93385 8.22392 9.42851 8.37735 9.85712 8.5724C10.2703 8.76043 10.6974 9.02037 10.9749 9.39037C11.5904 10.2111 11.2328 11.1285 10.9579 11.6156C10.8054 11.8858 10.631 12.1139 10.4985 12.2715C10.4314 12.3514 10.3727 12.4159 10.3297 12.4616C10.3081 12.4845 10.2903 12.5029 10.2771 12.5162C10.2705 12.5229 10.265 12.5284 10.2608 12.5326L10.2555 12.5378L10.2535 12.5398L10.2524 12.5409C10.2522 12.541 10.2521 12.5412 9.76041 12.0362C9.26875 11.5311 9.2686 11.5313 9.26846 11.5314L9.26778 11.5321L9.26764 11.5322C9.26847 11.5314 9.27045 11.5294 9.2735 11.5263C9.2796 11.5202 9.28989 11.5096 9.30359 11.495C9.3311 11.4658 9.37172 11.4213 9.41939 11.3646C9.51661 11.2489 9.63396 11.0935 9.73025 10.9229C9.95293 10.5282 9.92062 10.3341 9.84716 10.2362C9.78016 10.1468 9.60777 10.0077 9.27324 9.85543C8.95414 9.71021 8.55287 9.5822 8.11081 9.47657C7.22405 9.26467 6.25851 9.16266 5.63993 9.16266C5.23459 9.16266 4.68834 9.33538 4.09851 9.63065Z" fill="#232323"/>
<path fillRule="evenodd" clipRule="evenodd" d="M8.57031 2.2229H13.3635V6.67772H8.57031V2.2229ZM9.97995 3.63254V5.26808H11.9538V3.63254H9.97995Z" fill="#7AD8E7"/>
</svg>
