<svg width="48" height="48" viewBox="0 0 48 48" fill="none" xmlns="http://www.w3.org/2000/svg">
<circle cx="24" cy="24" r="24" fill="#B2BCCA"/>
<path d="M33.6208 17.5667L24.9541 13.4267C24.8637 13.383 24.7646 13.3603 24.6641 13.3603C24.5637 13.3603 24.4646 13.383 24.3741 13.4267L14.3741 18.2533C14.2607 18.3074 14.1648 18.3924 14.0976 18.4985C14.0304 18.6047 13.9945 18.7277 13.9941 18.8533V29.8867C13.9937 30.0168 14.0313 30.1442 14.1024 30.2532C14.1735 30.3622 14.2749 30.448 14.3941 30.5L23.0608 34.6267C23.1512 34.6704 23.2504 34.6931 23.3508 34.6931C23.4512 34.6931 23.5504 34.6704 23.6408 34.6267L33.6408 29.8C33.7543 29.746 33.8501 29.661 33.9174 29.5548C33.9846 29.4487 34.0205 29.3257 34.0208 29.2V18.1667C34.0187 18.0388 33.9799 17.9143 33.9089 17.8079C33.838 17.7015 33.738 17.6178 33.6208 17.5667ZM24.6675 14.7667L31.9542 18.2467L28.5875 19.8733L21.4741 16.3067L24.6675 14.7667ZM23.3341 22.4267L16.0008 18.94L19.9341 17.04L27.0675 20.6067L23.3341 22.4267ZM24.0008 32.96V23.5733L32.6675 19.38V28.78L24.0008 32.96Z" fill="white"/>
</svg>
