<svg width="46" height="46" viewBox="0 0 46 46" fill="none" xmlns="http://www.w3.org/2000/svg">
<g filter="url(#filter0_d_803_6953)">
<circle cx="23" cy="21" r="15" fill="#7AD8E7"/>
<circle cx="23" cy="21" r="16" stroke="white" strokeWidth="2"/>
</g>
<path d="M19.0563 18.048C19.0723 17.04 20.2083 16.48 21.3123 16.48C22.7523 16.48 23.8563 17.056 23.8563 18.272C23.8563 19.568 22.3043 19.712 21.4563 19.712C19.2483 19.712 16.9123 20.48 16.9123 23.056C16.9123 24.048 16.9123 25.024 16.9123 26H25.9843V24.032H19.0243V23.072C19.0243 21.856 20.5283 21.616 21.4563 21.616C23.8083 21.616 25.9523 21.072 25.9523 18.224C25.9523 15.568 23.5203 14.656 21.2803 14.656C19.2163 14.656 16.9763 15.68 16.9603 18.048H19.0563ZM27.3967 24.992C27.3967 26.512 29.7007 26.512 29.7007 24.992C29.7007 23.472 27.3967 23.472 27.3967 24.992Z" fill="white"/>
<defs>
<filter id="filter0_d_803_6953" x="0" y="0" width="46" height="46" filterUnits="userSpaceOnUse" color-interpolation-filters="sRGB">
<feFlood flood-opacity="0" result="BackgroundImageFix"/>
<feColorMatrix in="SourceAlpha" type="matrix" values="0 0 0 0 0 0 0 0 0 0 0 0 0 0 0 0 0 0 127 0" result="hardAlpha"/>
<feOffset dy="2"/>
<feGaussianBlur stdDeviation="3"/>
<feComposite in2="hardAlpha" operator="out"/>
<feColorMatrix type="matrix" values="0 0 0 0 0 0 0 0 0 0 0 0 0 0 0 0 0 0 0.12 0"/>
<feBlend mode="normal" in2="BackgroundImageFix" result="effect1_dropShadow_803_6953"/>
<feBlend mode="normal" in="SourceGraphic" in2="effect1_dropShadow_803_6953" result="shape"/>
</filter>
</defs>
</svg>
