<svg width="60" height="60" viewBox="0 0 60 60" fill="none" xmlns="http://www.w3.org/2000/svg">
<path fillRule="evenodd" clipRule="evenodd" d="M32.5023 42.5145C32.5022 42.5145 32.5022 42.5146 32.0414 40.2108L32.5023 42.5145L31.8904 42.6369L24.5314 40.1839L26.0173 35.7263L32.1937 37.7851C32.2328 37.7773 32.2737 37.7692 32.3162 37.7608C32.7847 37.668 33.4562 37.5354 34.2689 37.3764C35.8939 37.0585 38.0855 36.6343 40.3492 36.2099C42.6105 35.7859 44.9547 35.3596 46.8811 35.0385C48.6953 34.7361 50.4083 34.4779 51.2148 34.4779C52.1445 34.4779 53.1888 34.7103 54.0307 35.4469C54.9135 36.2194 55.2559 37.2678 55.2559 38.2371C55.2559 39.9966 54.1843 41.6916 52.876 42.9999C51.6495 44.2265 48.9798 46.5966 45.709 48.678C42.5038 50.7177 38.3675 52.7108 34.2971 52.7108C30.5157 52.7108 27.3962 51.7594 24.8134 50.8984C24.5723 50.8181 24.3385 50.7397 24.1111 50.6634C21.7748 49.8798 20.1275 49.3272 18.5073 49.3272H3.25293V44.6284H18.5073C20.9485 44.6284 23.3636 45.4471 25.5314 46.1819C25.7911 46.2699 26.0471 46.3567 26.2992 46.4408C28.7917 47.2716 31.3114 48.012 34.2971 48.012C36.9937 48.012 40.1885 46.6215 43.1864 44.7138C46.1187 42.8477 48.5244 40.7065 49.5535 39.6774C49.6751 39.5557 49.7841 39.438 49.8813 39.3253C49.2657 39.4119 48.5097 39.5307 47.6535 39.6734C45.7735 39.9867 43.4653 40.4063 41.2152 40.8282C38.9675 41.2496 36.7888 41.6713 35.1711 41.9878C34.3626 42.146 33.6948 42.2778 33.2293 42.37C32.9966 42.4161 32.8145 42.4523 32.6907 42.477L32.5023 42.5145Z" fill="#232323"/>
<path fillRule="evenodd" clipRule="evenodd" d="M23.1121 12.1084V21.0375H18.4133V12.0147C18.4133 10.7934 18.8985 9.62206 19.7621 8.75844C20.6258 7.89482 21.7971 7.40964 23.0184 7.40964H50.0867C51.308 7.40964 52.4793 7.89481 53.343 8.75844C54.2066 9.62206 54.6918 10.7934 54.6918 12.0147V30.0602H49.993V12.1084H23.1121ZM13.6568 32.1021C11.7431 33.0602 9.93986 34.2789 8.7004 35.275L5.75684 31.6125C7.22821 30.43 9.31056 29.0232 11.5534 27.9004C13.744 26.8038 16.3509 25.8434 18.7949 25.8434C21.2443 25.8434 24.8293 26.2313 28.1232 27.0184C29.7746 27.413 31.4235 27.9245 32.8522 28.5746C34.2294 29.2014 35.653 30.0679 36.578 31.3012C38.6298 34.037 37.4378 37.0948 36.5216 38.7186C36.0133 39.6194 35.4316 40.3797 34.9902 40.9049C34.7664 41.1713 34.5709 41.3863 34.4273 41.5387C34.3554 41.615 34.296 41.6762 34.252 41.7208C34.2301 41.7431 34.2119 41.7612 34.1979 41.7751L34.18 41.7928L34.1736 41.7991L34.1698 41.8028C34.1692 41.8034 34.1687 41.8039 32.5298 40.1205C30.8909 38.4371 30.8905 38.4376 30.89 38.4381L30.8877 38.4403L30.8872 38.4407C30.89 38.438 30.8966 38.4314 30.9068 38.4211C30.9271 38.4005 30.9614 38.3652 31.0071 38.3168C31.0988 38.2194 31.2342 38.0709 31.3931 37.8818C31.7172 37.4962 32.1083 36.9783 32.4293 36.4095C33.1716 35.094 33.0639 34.447 32.819 34.1205C32.5956 33.8227 32.021 33.3589 30.9059 32.8514C29.8423 32.3673 28.5047 31.9407 27.0311 31.5885C24.0753 30.8822 20.8568 30.5422 18.7949 30.5422C17.4437 30.5422 15.6229 31.1179 13.6568 32.1021Z" fill="#232323"/>
<path fillRule="evenodd" clipRule="evenodd" d="M28.5645 7.40964H44.5417V22.259H28.5645V7.40964ZM33.2632 12.1084V17.5602H39.8429V12.1084H33.2632Z" fill="#BE9C79"/>
</svg>
