<svg width="60" height="60" viewBox="0 0 60 60" fill="none" xmlns="http://www.w3.org/2000/svg">
<path d="M47.5605 17.6506C47.5605 14.9006 45.3105 12.6506 42.5605 12.6506H35.0605V17.6506H42.5605V24.2756L33.8605 35.1506H25.0605V22.6506H15.0605C9.53554 22.6506 5.06055 27.1256 5.06055 32.6506V40.1506H10.0605C10.0605 44.3006 13.4105 47.6506 17.5605 47.6506C21.7105 47.6506 25.0605 44.3006 25.0605 40.1506H36.2605L47.5605 26.0256V17.6506ZM10.0605 35.1506V32.6506C10.0605 29.9006 12.3105 27.6506 15.0605 27.6506H20.0605V35.1506H10.0605ZM17.5605 42.6506C16.1855 42.6506 15.0605 41.5256 15.0605 40.1506H20.0605C20.0605 41.5256 18.9355 42.6506 17.5605 42.6506Z" fill="#5F6061"/>
<path d="M47.5605 32.6506C43.4105 32.6506 40.0605 36.0006 40.0605 40.1506C40.0605 44.3006 43.4105 47.6506 47.5605 47.6506C51.7105 47.6506 55.0605 44.3006 55.0605 40.1506C55.0605 36.0006 51.7105 32.6506 47.5605 32.6506ZM47.5605 42.6506C46.1855 42.6506 45.0605 41.5256 45.0605 40.1506C45.0605 38.7756 46.1855 37.6506 47.5605 37.6506C48.9355 37.6506 50.0605 38.7756 50.0605 40.1506C50.0605 41.5256 48.9355 42.6506 47.5605 42.6506Z" fill="#5F6061"/>
<path d="M24.9405 12.6506H12.6514V22.7711H24.9405V12.6506Z" fill="#BE9C79"/>
<path d="M20.6027 12.6506H16.9883V16.2651H20.6027V12.6506Z" fill="#5F6061"/>
</svg>
