<svg width="60" height="60" viewBox="0 0 60 60" fill="none" xmlns="http://www.w3.org/2000/svg">
<path fillRule="evenodd" clipRule="evenodd" d="M18.6443 40C17.1804 40 15.9937 41.1868 15.9937 42.6506C15.9937 44.1145 17.1804 45.3012 18.6443 45.3012C20.1082 45.3012 21.2949 44.1145 21.2949 42.6506C21.2949 41.1868 20.1082 40 18.6443 40ZM11.2949 42.6506C11.2949 38.5917 14.5854 35.3012 18.6443 35.3012C22.7033 35.3012 25.9937 38.5917 25.9937 42.6506C25.9937 46.7096 22.7033 50 18.6443 50C14.5854 50 11.2949 46.7096 11.2949 42.6506Z" fill="#5F6061"/>
<path fillRule="evenodd" clipRule="evenodd" d="M43.6443 40C42.1804 40 40.9937 41.1868 40.9937 42.6506C40.9937 44.1145 42.1804 45.3012 43.6443 45.3012C45.1082 45.3012 46.2949 44.1145 46.2949 42.6506C46.2949 41.1868 45.1082 40 43.6443 40ZM36.2949 42.6506C36.2949 38.5917 39.5854 35.3012 43.6443 35.3012C47.7033 35.3012 50.9937 38.5917 50.9937 42.6506C50.9937 46.7096 47.7033 50 43.6443 50C39.5854 50 36.2949 46.7096 36.2949 42.6506Z" fill="#5F6061"/>
<path fillRule="evenodd" clipRule="evenodd" d="M32.3794 15H6.14453V10.3012H37.0782V14.0964H48.9244L55.9939 27.0513V45H48.6445V40.3012H51.2951V30H37.0782V40.3012H38.6445V45H23.6445V40.3012H32.3794V15ZM37.0782 18.7952V25.3012H49.686L46.1357 18.7952H37.0782ZM10.9939 40.3012V32.6506H6.29513V45H13.6445V40.3012H10.9939Z" fill="#5F6061"/>
<path d="M18.6445 23.1325H6.14453V18.4337H18.6445V23.1325Z" fill="#BE9C79"/>
<path d="M13.9453 30H1.44531V25.3012H13.9453V30Z" fill="#BE9C79"/>
</svg>
