<svg width="46" height="46" viewBox="0 0 46 46" fill="none" xmlns="http://www.w3.org/2000/svg">
<g filter="url(#filter0_d_347_252)">
<circle cx="23" cy="21" r="15" fill="#BE9C79"/>
<circle cx="23" cy="21" r="16" stroke="white" strokeWidth="2"/>
</g>
<path d="M21.2967 27C20.4967 27 19.7874 26.8347 19.1687 26.504C18.55 26.1627 18.0647 25.704 17.7127 25.128C17.3607 24.5413 17.1847 23.8853 17.1847 23.16C17.1847 22.9147 17.254 22.7173 17.3927 22.568C17.542 22.408 17.718 22.328 17.9207 22.328C18.134 22.328 18.31 22.408 18.4487 22.568C18.5874 22.7173 18.6567 22.9147 18.6567 23.16C18.6567 23.5973 18.7687 24.0027 18.9927 24.376C19.2167 24.7387 19.5207 25.032 19.9047 25.256C20.2887 25.4693 20.7207 25.576 21.2007 25.576C21.9047 25.576 22.47 25.384 22.8967 25C23.334 24.6053 23.5527 24.056 23.5527 23.352C23.5527 22.904 23.4567 22.504 23.2647 22.152C23.0727 21.7893 22.8114 21.5013 22.4807 21.288C22.15 21.0747 21.7767 20.968 21.3607 20.968C21.126 20.968 20.9287 20.888 20.7687 20.728C20.6194 20.568 20.5447 20.3707 20.5447 20.136C20.5447 19.9013 20.6194 19.7093 20.7687 19.56C20.9287 19.4 21.126 19.32 21.3607 19.32C21.6594 19.32 21.9474 19.2453 22.2247 19.096C22.502 18.936 22.7314 18.728 22.9127 18.472C23.094 18.2053 23.1847 17.9067 23.1847 17.576C23.1847 17.1067 23.014 16.712 22.6727 16.392C22.3314 16.072 21.894 15.912 21.3607 15.912C20.9554 15.912 20.582 15.992 20.2407 16.152C19.91 16.312 19.6434 16.5253 19.4407 16.792C19.2487 17.0587 19.1527 17.3573 19.1527 17.688C19.1527 17.9333 19.0834 18.1413 18.9447 18.312C18.806 18.472 18.63 18.552 18.4167 18.552C18.214 18.552 18.038 18.4773 17.8887 18.328C17.75 18.168 17.6807 17.9707 17.6807 17.736C17.6807 17.1173 17.8407 16.5627 18.1607 16.072C18.4807 15.5813 18.918 15.1973 19.4727 14.92C20.0274 14.632 20.646 14.488 21.3287 14.488C21.958 14.488 22.5234 14.6267 23.0247 14.904C23.5367 15.1707 23.9367 15.5387 24.2247 16.008C24.5234 16.4667 24.6727 16.9893 24.6727 17.576C24.6727 17.992 24.5767 18.36 24.3847 18.68C24.2034 19 23.9687 19.2773 23.6807 19.512C23.3927 19.736 23.0887 19.9227 22.7687 20.072C23.334 20.264 23.7927 20.5253 24.1447 20.856C24.4967 21.176 24.7527 21.5493 24.9127 21.976C25.0834 22.4027 25.1687 22.8667 25.1687 23.368C25.1687 24.0613 24.9927 24.6853 24.6407 25.24C24.2887 25.784 23.8194 26.216 23.2327 26.536C22.646 26.8453 22.0007 27 21.2967 27ZM27.7868 27.256C27.4881 27.256 27.2268 27.1493 27.0028 26.936C26.7895 26.712 26.6828 26.4507 26.6828 26.152C26.6828 25.8427 26.7895 25.5813 27.0028 25.368C27.2268 25.144 27.4881 25.032 27.7868 25.032C28.0961 25.032 28.3575 25.144 28.5708 25.368C28.7841 25.5813 28.8908 25.8427 28.8908 26.152C28.8908 26.4507 28.7841 26.712 28.5708 26.936C28.3575 27.1493 28.0961 27.256 27.7868 27.256Z" fill="white"/>
<defs>
<filter id="filter0_d_347_252" x="0" y="0" width="46" height="46" filterUnits="userSpaceOnUse" color-interpolation-filters="sRGB">
<feFlood flood-opacity="0" result="BackgroundImageFix"/>
<feColorMatrix in="SourceAlpha" type="matrix" values="0 0 0 0 0 0 0 0 0 0 0 0 0 0 0 0 0 0 127 0" result="hardAlpha"/>
<feOffset dy="2"/>
<feGaussianBlur stdDeviation="3"/>
<feComposite in2="hardAlpha" operator="out"/>
<feColorMatrix type="matrix" values="0 0 0 0 0 0 0 0 0 0 0 0 0 0 0 0 0 0 0.12 0"/>
<feBlend mode="normal" in2="BackgroundImageFix" result="effect1_dropShadow_347_252"/>
<feBlend mode="normal" in="SourceGraphic" in2="effect1_dropShadow_347_252" result="shape"/>
</filter>
</defs>
</svg>
