<svg width="46" height="46" viewBox="0 0 46 46" fill="none" xmlns="http://www.w3.org/2000/svg">
<g filter="url(#filter0_d_665_417)">
<circle cx="23" cy="21" r="15" fill="#BE9C79"/>
<circle cx="23" cy="21" r="16" stroke="white" strokeWidth="2"/>
</g>
<path d="M22.3091 27C22.0958 27 21.9091 26.92 21.7491 26.76C21.5891 26.6 21.5091 26.408 21.5091 26.184V16.424L20.3411 16.92C20.1598 16.9947 19.9891 17.032 19.8291 17.032C19.5945 17.032 19.3971 16.9573 19.2371 16.808C19.0878 16.6587 19.0131 16.4667 19.0131 16.232C19.0131 16.0613 19.0558 15.9067 19.1411 15.768C19.2265 15.6293 19.3598 15.528 19.5411 15.464L22.0371 14.568C22.0905 14.5467 22.1438 14.5307 22.1971 14.52C22.2505 14.5093 22.2985 14.504 22.3411 14.504C22.5865 14.504 22.7785 14.584 22.9171 14.744C23.0665 14.8933 23.1411 15.0907 23.1411 15.336V26.184C23.1411 26.408 23.0611 26.6 22.9011 26.76C22.7411 26.92 22.5438 27 22.3091 27ZM26.6384 27.256C26.3397 27.256 26.0784 27.1493 25.8544 26.936C25.641 26.712 25.5344 26.4507 25.5344 26.152C25.5344 25.8427 25.641 25.5813 25.8544 25.368C26.0784 25.144 26.3397 25.032 26.6384 25.032C26.9477 25.032 27.209 25.144 27.4224 25.368C27.6357 25.5813 27.7424 25.8427 27.7424 26.152C27.7424 26.4507 27.6357 26.712 27.4224 26.936C27.209 27.1493 26.9477 27.256 26.6384 27.256Z" fill="white"/>
<defs>
<filter id="filter0_d_665_417" x="0" y="0" width="46" height="46" filterUnits="userSpaceOnUse" color-interpolation-filters="sRGB">
<feFlood flood-opacity="0" result="BackgroundImageFix"/>
<feColorMatrix in="SourceAlpha" type="matrix" values="0 0 0 0 0 0 0 0 0 0 0 0 0 0 0 0 0 0 127 0" result="hardAlpha"/>
<feOffset dy="2"/>
<feGaussianBlur stdDeviation="3"/>
<feComposite in2="hardAlpha" operator="out"/>
<feColorMatrix type="matrix" values="0 0 0 0 0 0 0 0 0 0 0 0 0 0 0 0 0 0 0.12 0"/>
<feBlend mode="normal" in2="BackgroundImageFix" result="effect1_dropShadow_665_417"/>
<feBlend mode="normal" in="SourceGraphic" in2="effect1_dropShadow_665_417" result="shape"/>
</filter>
</defs>
</svg>
