<svg width="46" height="46" viewBox="0 0 46 46" fill="none" xmlns="http://www.w3.org/2000/svg">
<g filter="url(#filter0_d_347_248)">
<circle cx="23" cy="21" r="15" fill="#BE9C79"/>
<circle cx="23" cy="21" r="16" stroke="white" strokeWidth="2"/>
</g>
<path d="M18.2466 27C18.012 27 17.8146 26.92 17.6546 26.76C17.5053 26.6 17.4306 26.408 17.4306 26.184C17.4306 25.9493 17.5053 25.7573 17.6546 25.608L22.1986 20.296C22.5186 19.9227 22.764 19.5707 22.9346 19.24C23.116 18.9093 23.2066 18.5947 23.2066 18.296C23.2066 17.8267 23.1266 17.4213 22.9666 17.08C22.8066 16.7387 22.5773 16.4773 22.2786 16.296C21.98 16.104 21.6226 16.008 21.2066 16.008C20.8013 16.008 20.4333 16.1147 20.1026 16.328C19.7826 16.5307 19.5266 16.808 19.3346 17.16C19.1533 17.5013 19.0626 17.88 19.0626 18.296C19.0626 18.5093 18.9826 18.696 18.8226 18.856C18.6733 19.016 18.4813 19.096 18.2466 19.096C18.0226 19.096 17.8306 19.016 17.6706 18.856C17.5106 18.696 17.4306 18.5093 17.4306 18.296C17.4306 17.5707 17.596 16.9253 17.9266 16.36C18.2573 15.784 18.7053 15.3307 19.2706 15C19.8466 14.6693 20.492 14.504 21.2066 14.504C21.932 14.504 22.5613 14.6587 23.0946 14.968C23.628 15.2773 24.0386 15.7147 24.3266 16.28C24.6253 16.8453 24.7746 17.5173 24.7746 18.296C24.7746 18.6373 24.7 18.984 24.5506 19.336C24.412 19.688 24.2306 20.024 24.0066 20.344C23.7933 20.664 23.5746 20.952 23.3506 21.208L19.6866 25.368H24.1666C24.4013 25.368 24.5986 25.4533 24.7586 25.624C24.9186 25.784 24.9986 25.9707 24.9986 26.184C24.9986 26.408 24.9186 26.6 24.7586 26.76C24.5986 26.92 24.4013 27 24.1666 27H18.2466ZM27.7009 27.256C27.4022 27.256 27.1409 27.1493 26.9169 26.936C26.7035 26.712 26.5969 26.4507 26.5969 26.152C26.5969 25.8427 26.7035 25.5813 26.9169 25.368C27.1409 25.144 27.4022 25.032 27.7009 25.032C28.0102 25.032 28.2715 25.144 28.4849 25.368C28.6982 25.5813 28.8049 25.8427 28.8049 26.152C28.8049 26.4507 28.6982 26.712 28.4849 26.936C28.2715 27.1493 28.0102 27.256 27.7009 27.256Z" fill="white"/>
<defs>
<filter id="filter0_d_347_248" x="0" y="0" width="46" height="46" filterUnits="userSpaceOnUse" color-interpolation-filters="sRGB">
<feFlood flood-opacity="0" result="BackgroundImageFix"/>
<feColorMatrix in="SourceAlpha" type="matrix" values="0 0 0 0 0 0 0 0 0 0 0 0 0 0 0 0 0 0 127 0" result="hardAlpha"/>
<feOffset dy="2"/>
<feGaussianBlur stdDeviation="3"/>
<feComposite in2="hardAlpha" operator="out"/>
<feColorMatrix type="matrix" values="0 0 0 0 0 0 0 0 0 0 0 0 0 0 0 0 0 0 0.12 0"/>
<feBlend mode="normal" in2="BackgroundImageFix" result="effect1_dropShadow_347_248"/>
<feBlend mode="normal" in="SourceGraphic" in2="effect1_dropShadow_347_248" result="shape"/>
</filter>
</defs>
</svg>
