<svg width="16" height="15" viewBox="0 0 16 15" fill="none" xmlns="http://www.w3.org/2000/svg">
<path fillRule="evenodd" clipRule="evenodd" d="M1.59941 13.12L14.3994 13.12L13.2652 2.39999L2.73358 2.39999L1.59941 13.12ZM2.9659 12.4799C3.15254 12.4799 3.30912 12.3391 3.32894 12.1536L4.27678 3.27716C4.29944 3.06493 4.13311 2.8799 3.91967 2.8799C3.73627 2.8799 3.58233 3.01808 3.56262 3.20042L2.60292 12.0756C2.57957 12.2915 2.74873 12.4799 2.9659 12.4799Z" fill="#7F5635"/>
<path d="M12.7988 1.76007L3.19882 1.76007L6.28946 7.05449e-05L9.70819 7.0246e-05L12.7988 1.76007Z" fill="#7F5635"/>
<rect x="16" y="14.8801" width="16" height="1.12" transform="rotate(180 16 14.8801)" fill="#7F5635"/>
</svg>
