<svg width="16" height="14" viewBox="0 0 16 14" fill="none" xmlns="http://www.w3.org/2000/svg">
<path fillRule="evenodd" clipRule="evenodd" d="M8.77481 10.5315C8.77478 10.5315 8.77477 10.5315 8.63654 9.84036L8.77481 10.5315L8.59123 10.5682L6.38354 9.8323L6.82931 8.49501L8.68223 9.11265C8.69397 9.11032 8.70622 9.10789 8.71897 9.10536C8.85954 9.07752 9.06098 9.03776 9.3048 8.99005C9.79228 8.89468 10.4498 8.76742 11.1289 8.64008C11.8073 8.51289 12.5105 8.385 13.0884 8.28868C13.6327 8.19796 14.1466 8.12048 14.3885 8.12048C14.6675 8.12048 14.9808 8.1902 15.2333 8.41118C15.4982 8.64294 15.6009 8.95748 15.6009 9.24824C15.6009 9.77611 15.2794 10.2846 14.8869 10.6771C14.519 11.0451 13.7181 11.7561 12.7368 12.3805C11.7753 12.9924 10.5344 13.5904 9.31325 13.5904C8.17884 13.5904 7.24297 13.3049 6.46813 13.0467C6.39582 13.0226 6.32566 12.999 6.25745 12.9761C5.55656 12.7411 5.06236 12.5753 4.5763 12.5753H0V11.1657H4.5763C5.30866 11.1657 6.03319 11.4113 6.68355 11.6317C6.76144 11.6581 6.83825 11.6841 6.91389 11.7094C7.66164 11.9586 8.41754 12.1807 9.31325 12.1807C10.1222 12.1807 11.0807 11.7636 11.98 11.1913C12.8597 10.6314 13.5814 9.98907 13.8902 9.68033C13.9267 9.64384 13.9593 9.60854 13.9885 9.57473C13.8038 9.6007 13.577 9.63633 13.3202 9.67913C12.7562 9.77314 12.0637 9.89901 11.3887 10.0256C10.7144 10.152 10.0607 10.2785 9.57546 10.3735C9.33289 10.4209 9.13255 10.4605 8.99292 10.4881C8.9231 10.502 8.86847 10.5128 8.83134 10.5202L8.77481 10.5315Z" fill="#232323"/>
<path fillRule="evenodd" clipRule="evenodd" d="M5.95757 1.40964V4.08835H4.54793V1.38153C4.54793 1.01512 4.69348 0.663726 4.95257 0.40464C5.21165 0.145554 5.56305 0 5.92946 0H14.0499C14.4163 0 14.7677 0.145553 15.0268 0.40464C15.2859 0.663727 15.4315 1.01512 15.4315 1.38153V6.79518H14.0218V1.40964H5.95757ZM3.12097 7.40775C2.54684 7.69516 2.00588 8.06077 1.63405 8.35962L0.750977 7.26086C1.19239 6.9061 1.81709 6.48407 2.48995 6.14723C3.14711 5.81826 3.92918 5.53012 4.66239 5.53012C5.39722 5.53012 6.47272 5.64649 7.4609 5.88263C7.95631 6.00102 8.45097 6.15445 8.87958 6.3495C9.29275 6.53753 9.71983 6.79747 9.99733 7.16747C10.6129 7.9882 10.2553 8.90555 9.98039 9.39269C9.8279 9.66293 9.65342 9.89102 9.52099 10.0486C9.45384 10.1285 9.39519 10.193 9.35212 10.2387C9.33054 10.2616 9.31272 10.28 9.29954 10.2933C9.29294 10.3 9.28749 10.3055 9.28329 10.3097L9.27794 10.3149L9.27599 10.3169L9.27485 10.318C9.27469 10.3181 9.27454 10.3183 8.78287 9.81326C8.29121 9.30825 8.29106 9.30839 8.29092 9.30853L8.29024 9.30919L8.2901 9.30933C8.29093 9.30851 8.29291 9.30652 8.29596 9.30344C8.30206 9.29725 8.31235 9.28668 8.32605 9.27214C8.35356 9.24294 8.39418 9.19838 8.44185 9.14165C8.53907 9.02597 8.65642 8.87059 8.75271 8.69995C8.97539 8.30531 8.94308 8.11121 8.86962 8.01326C8.80262 7.92392 8.63023 7.78477 8.2957 7.63253C7.9766 7.48731 7.57533 7.3593 7.13327 7.25367C6.24651 7.04177 5.28097 6.93976 4.66239 6.93976C4.25705 6.93976 3.7108 7.11248 3.12097 7.40775Z" fill="#232323"/>
<path fillRule="evenodd" clipRule="evenodd" d="M7.59375 0H12.3869V4.45482H7.59375V0ZM9.00339 1.40964V3.04518H10.9773V1.40964H9.00339Z" fill="#BE9C79"/>
</svg>
