<svg width="96" height="17" viewBox="0 0 96 17" fill="none" xmlns="http://www.w3.org/2000/svg">
<g clipPath="url(#clip0_713_415)">
<path fillRule="evenodd" clipRule="evenodd" d="M10.8515 5.07586L8.27887 0.000442505L5.702 5.07586L0 5.93275L4.14154 9.92885L3.08295 15.6799L8.27891 12.9856L13.4707 15.6799L12.4163 9.92885L16.5536 5.93275L10.8515 5.07586Z" fill="#FFC619"/>
<path fillRule="evenodd" clipRule="evenodd" d="M30.5988 5.07594L28.0268 0.000518799L25.4506 5.07594L19.75 5.93283L23.8905 9.92893L22.8322 15.6799L28.0268 12.9856L33.2172 15.6799L32.1631 9.92893L36.2994 5.93283L30.5988 5.07594Z" fill="#FFC619"/>
<path fillRule="evenodd" clipRule="evenodd" d="M50.3468 5.07594L47.7748 0.000518799L45.1986 5.07594L39.498 5.93283L43.6385 9.92893L42.5802 15.6799L47.7748 12.9856L52.9652 15.6799L51.9111 9.92893L56.0475 5.93283L50.3468 5.07594Z" fill="#FFC619"/>
<path fillRule="evenodd" clipRule="evenodd" d="M70.091 5.07594L67.5189 0.000518799L64.9427 5.07594L59.2422 5.93283L63.3827 9.92893L62.3243 15.6799L67.519 12.9856L72.7094 15.6799L71.6553 9.92893L75.7916 5.93283L70.091 5.07594Z" fill="#FFC619"/>
<path fillRule="evenodd" clipRule="evenodd" d="M89.8398 5.07542L87.2671 0L84.6903 5.07542L78.9883 5.93231L83.1298 9.92841L82.0712 15.6794L87.2671 12.9851L92.4588 15.6794L91.4045 9.92841L95.5418 5.93231L89.8398 5.07542Z" fill="#FFC619"/>
</g>
<defs>
<clipPath id="clip0_713_415">
<rect width="95.9715" height="16.8741" fill="white"/>
</clipPath>
</defs>
</svg>
