<svg width="48" height="48" viewBox="0 0 48 48" fill="none" xmlns="http://www.w3.org/2000/svg">
<circle cx="24" cy="24" r="24" fill="#B2BCCA"/>
<path d="M15 17.5714C15 16.8894 15.2709 16.2354 15.7532 15.7532C16.2354 15.2709 16.8894 15 17.5714 15H26.5714C27.2534 15 27.9075 15.2709 28.3897 15.7532C28.8719 16.2354 29.1429 16.8894 29.1429 17.5714V26.5714H33V29.1429C33 30.1658 32.5936 31.1469 31.8703 31.8703C31.1469 32.5936 30.1658 33 29.1429 33H18.8571C17.8342 33 16.8531 32.5936 16.1297 31.8703C15.4064 31.1469 15 30.1658 15 29.1429V17.5714ZM29.1429 31.7143C29.8248 31.7143 30.4789 31.4434 30.9611 30.9611C31.4434 30.4789 31.7143 29.8248 31.7143 29.1429V27.8571H29.1429V31.7143ZM19.5 18.8571C19.3295 18.8571 19.166 18.9249 19.0454 19.0454C18.9249 19.166 18.8571 19.3295 18.8571 19.5C18.8571 19.6705 18.9249 19.834 19.0454 19.9546C19.166 20.0751 19.3295 20.1429 19.5 20.1429H24.6429C24.8134 20.1429 24.9769 20.0751 25.0974 19.9546C25.218 19.834 25.2857 19.6705 25.2857 19.5C25.2857 19.3295 25.218 19.166 25.0974 19.0454C24.9769 18.9249 24.8134 18.8571 24.6429 18.8571H19.5ZM19.5 22.7143C19.3295 22.7143 19.166 22.782 19.0454 22.9026C18.9249 23.0231 18.8571 23.1866 18.8571 23.3571C18.8571 23.5276 18.9249 23.6912 19.0454 23.8117C19.166 23.9323 19.3295 24 19.5 24H24.6429C24.8134 24 24.9769 23.9323 25.0974 23.8117C25.218 23.6912 25.2857 23.5276 25.2857 23.3571C25.2857 23.1866 25.218 23.0231 25.0974 22.9026C24.9769 22.782 24.8134 22.7143 24.6429 22.7143H19.5ZM19.5 26.5714C19.3295 26.5714 19.166 26.6392 19.0454 26.7597C18.9249 26.8803 18.8571 27.0438 18.8571 27.2143C18.8571 27.3848 18.9249 27.5483 19.0454 27.6689C19.166 27.7894 19.3295 27.8571 19.5 27.8571H22.0714C22.2419 27.8571 22.4054 27.7894 22.526 27.6689C22.6466 27.5483 22.7143 27.3848 22.7143 27.2143C22.7143 27.0438 22.6466 26.8803 22.526 26.7597C22.4054 26.6392 22.2419 26.5714 22.0714 26.5714H19.5Z" fill="white"/>
</svg>
